CascadiaNext-CondensedExtraLight.ufo
<glyph name="exclam" format="2">
  <advance width="600"/>
  <unicode hex="0021"/>
  <outline>
    <contour>
      <point x="251" y="356" type="line"/>
      <point x="345" y="356" type="line"/>
      <point x="351" y="1430" type="line"/>
      <point x="249" y="1430" type="line"/>
    </contour>
    <component base="period"/>
  </outline>
</glyph>
<glyph name="numbersign" format="2">
  <advance width="600"/>
  <unicode hex="0023"/>
  <outline>
    <contour>
      <point x="315" y="0" type="line"/>
      <point x="404" y="0" type="line"/>
      <point x="462" y="1420" type="line"/>
      <point x="373" y="1420" type="line"/>
      <point x="355" y="976" type="line"/>
      <point x="358" y="952" type="line"/>
      <point x="339" y="480" type="line"/>
      <point x="334" y="456" type="line"/>
    </contour>
    <contour>
      <point x="64" y="419" type="line"/>
      <point x="536" y="419" type="line"/>
      <point x="536" y="509" type="line"/>
      <point x="64" y="509" type="line"/>
    </contour>
    <contour>
      <point x="138" y="0" type="line"/>
      <point x="227" y="0" type="line"/>
      <point x="246" y="464" type="line"/>
      <point x="243" y="485" type="line"/>
      <point x="262" y="951" type="line"/>
      <point x="267" y="970" type="line"/>
      <point x="285" y="1420" type="line"/>
      <point x="196" y="1420" type="line"/>
    </contour>
    <contour>
      <point x="64" y="910" type="line"/>
      <point x="536" y="910" type="line"/>
      <point x="536" y="1000" type="line"/>
      <point x="64" y="1000" type="line"/>
    </contour>
  </outline>
</glyph>
<glyph name="dollar" format="2">
  <advance width="600"/>
  <unicode hex="0024"/>
  <anchor x="305" y="0" name="bottom"/>
  <anchor x="309" y="1420" name="top"/>
  <outline>
    <contour>
      <point x="261" y="-320" type="line"/>
      <point x="355" y="-320" type="line"/>
      <point x="355" y="1740" type="line"/>
      <point x="261" y="1740" type="line"/>
    </contour>
    <component base="S"/>
  </outline>
</glyph>
<glyph name="percent" format="2">
  <advance width="600"/>
  <unicode hex="0025"/>
  <outline>
    <contour>
      <point x="86" y="496" type="line"/>
      <point x="574" y="856" type="line"/>
      <point x="524" y="926" type="line"/>
      <point x="36" y="566" type="line"/>
    </contour>
    <contour>
      <point x="204" y="794" type="curve" smooth="yes"/>
      <point x="316" y="794"/>
      <point x="375" y="904"/>
      <point x="375" y="1116" type="curve" smooth="yes"/>
      <point x="375" y="1329"/>
      <point x="316" y="1440"/>
      <point x="204" y="1440" type="curve" smooth="yes"/>
      <point x="92" y="1440"/>
      <point x="33" y="1329"/>
      <point x="33" y="1116" type="curve" smooth="yes"/>
      <point x="33" y="904"/>
      <point x="92" y="794"/>
    </contour>
    <contour>
      <point x="204" y="884" type="curve" smooth="yes"/>
      <point x="152" y="884"/>
      <point x="125" y="964"/>
      <point x="125" y="1116" type="curve" smooth="yes"/>
      <point x="125" y="1270"/>
      <point x="152" y="1350"/>
      <point x="204" y="1350" type="curve" smooth="yes"/>
      <point x="256" y="1350"/>
      <point x="283" y="1270"/>
      <point x="283" y="1116" type="curve" smooth="yes"/>
      <point x="283" y="964"/>
      <point x="256" y="884"/>
    </contour>
    <contour>
      <point x="406" y="-20" type="curve" smooth="yes"/>
      <point x="518" y="-20"/>
      <point x="577" y="90"/>
      <point x="577" y="302" type="curve" smooth="yes"/>
      <point x="577" y="515"/>
      <point x="518" y="626"/>
      <point x="406" y="626" type="curve" smooth="yes"/>
      <point x="294" y="626"/>
      <point x="235" y="515"/>
      <point x="235" y="302" type="curve" smooth="yes"/>
      <point x="235" y="90"/>
      <point x="294" y="-20"/>
    </contour>
    <contour>
      <point x="406" y="70" type="curve" smooth="yes"/>
      <point x="354" y="70"/>
      <point x="327" y="150"/>
      <point x="327" y="302" type="curve" smooth="yes"/>
      <point x="327" y="456"/>
      <point x="354" y="536"/>
      <point x="406" y="536" type="curve" smooth="yes"/>
      <point x="458" y="536"/>
      <point x="485" y="456"/>
      <point x="485" y="302" type="curve" smooth="yes"/>
      <point x="485" y="150"/>
      <point x="458" y="70"/>
    </contour>
  </outline>
</glyph>
<glyph name="ampersand" format="2">
  <advance width="600"/>
  <unicode hex="0026"/>
  <outline>
    <contour>
      <point x="503" y="0" type="line"/>
      <point x="600" y="0" type="line"/>
      <point x="266" y="771" type="line" smooth="yes"/>
      <point x="214" y="891"/>
      <point x="167" y="1013"/>
      <point x="167" y="1141" type="curve" smooth="yes"/>
      <point x="167" y="1284"/>
      <point x="208" y="1350"/>
      <point x="298" y="1350" type="curve"/>
      <point x="296" y="1440" type="line"/>
      <point x="142" y="1440"/>
      <point x="71" y="1347"/>
      <point x="71" y="1143" type="curve" smooth="yes"/>
      <point x="71" y="993"/>
      <point x="123" y="860"/>
      <point x="174" y="746" type="curve" smooth="yes"/>
      <point x="229" y="622" type="line"/>
      <point x="240" y="598" type="line"/>
      <point x="405" y="228" type="line"/>
      <point x="424" y="186" type="line"/>
    </contour>
    <contour>
      <point x="213" y="-20" type="curve" smooth="yes"/>
      <point x="328" y="-20"/>
      <point x="414" y="58"/>
      <point x="469" y="211" type="curve"/>
      <point x="408" y="327" type="line"/>
      <point x="371" y="157"/>
      <point x="306" y="70"/>
      <point x="215" y="70" type="curve" smooth="yes"/>
      <point x="139" y="70"/>
      <point x="99" y="130"/>
      <point x="99" y="243" type="curve" smooth="yes"/>
      <point x="99" y="401"/>
      <point x="186" y="527"/>
      <point x="317" y="605" type="curve"/>
      <point x="279" y="667" type="line"/>
      <point x="113" y="599"/>
      <point x="3" y="446"/>
      <point x="3" y="233" type="curve" smooth="yes"/>
      <point x="3" y="67"/>
      <point x="75" y="-20"/>
    </contour>
    <contour>
      <point x="469" y="211" type="line"/>
      <point x="515" y="342"/>
      <point x="539" y="528"/>
      <point x="539" y="766" type="curve"/>
      <point x="445" y="766" type="line"/>
      <point x="445" y="585"/>
      <point x="433" y="439"/>
      <point x="408" y="327" type="curve"/>
    </contour>
    <contour>
      <point x="415" y="1122" type="curve"/>
      <point x="511" y="1122" type="line"/>
      <point x="511" y="1340"/>
      <point x="443" y="1440"/>
      <point x="296" y="1440" type="curve"/>
      <point x="298" y="1350" type="line"/>
      <point x="378" y="1350"/>
      <point x="415" y="1278"/>
    </contour>
  </outline>
</glyph>
<glyph name="quotesingle" format="2">
  <advance width="600"/>
  <unicode hex="0027"/>
  <outline>
    <contour>
      <point x="253" y="780" type="line"/>
      <point x="347" y="780" type="line"/>
      <point x="352" y="1420" type="line"/>
      <point x="248" y="1420" type="line"/>
    </contour>
  </outline>
</glyph>
<glyph name="parenleft" format="2">
  <advance width="600"/>
  <unicode hex="0028"/>
  <outline>
    <contour>
      <point x="502" y="-200" type="curve" smooth="yes"/>
      <point x="530" y="-200" type="line"/>
      <point x="530" y="-110" type="line"/>
      <point x="502" y="-110" type="line" smooth="yes"/>
      <point x="334" y="-110"/>
      <point x="247" y="171"/>
      <point x="247" y="710" type="curve" smooth="yes"/>
      <point x="247" y="1249"/>
      <point x="334" y="1530"/>
      <point x="502" y="1530" type="curve" smooth="yes"/>
      <point x="530" y="1530" type="line"/>
      <point x="530" y="1620" type="line"/>
      <point x="502" y="1620" type="line" smooth="yes"/>
      <point x="271" y="1620"/>
      <point x="151" y="1308"/>
      <point x="151" y="711" type="curve" smooth="yes"/>
      <point x="151" y="112"/>
      <point x="271" y="-200"/>
    </contour>
  </outline>
</glyph>
<glyph name="parenright" format="2">
  <advance width="600"/>
  <unicode hex="0029"/>
  <outline>
    <contour>
      <point x="70" y="-200" type="line"/>
      <point x="98" y="-200" type="line" smooth="yes"/>
      <point x="329" y="-200"/>
      <point x="449" y="112"/>
      <point x="449" y="711" type="curve" smooth="yes"/>
      <point x="449" y="1308"/>
      <point x="329" y="1620"/>
      <point x="98" y="1620" type="curve" smooth="yes"/>
      <point x="70" y="1620" type="line"/>
      <point x="70" y="1530" type="line"/>
      <point x="98" y="1530" type="line" smooth="yes"/>
      <point x="266" y="1530"/>
      <point x="353" y="1249"/>
      <point x="353" y="710" type="curve" smooth="yes"/>
      <point x="353" y="171"/>
      <point x="266" y="-110"/>
      <point x="98" y="-110" type="curve" smooth="yes"/>
      <point x="70" y="-110" type="line"/>
    </contour>
  </outline>
</glyph>
<glyph name="asterisk" format="2">
  <advance width="600"/>
  <unicode hex="002A"/>
  <outline>
    <contour>
      <point x="412" y="282" type="line"/>
      <point x="494" y="317" type="line"/>
      <point x="329" y="720" type="line"/>
      <point x="271" y="672" type="line"/>
    </contour>
    <contour>
      <point x="178" y="282" type="line"/>
      <point x="329" y="672" type="line"/>
      <point x="271" y="720" type="line"/>
      <point x="96" y="317" type="line"/>
    </contour>
    <contour>
      <point x="287" y="640" type="line"/>
      <point x="313" y="712" type="line"/>
      <point x="87" y="904" type="line"/>
      <point x="35" y="826" type="line"/>
    </contour>
    <contour>
      <point x="262" y="696" type="line"/>
      <point x="338" y="696" type="line"/>
      <point x="347" y="1176" type="line"/>
      <point x="253" y="1176" type="line"/>
    </contour>
    <contour>
      <point x="313" y="640" type="line"/>
      <point x="555" y="826" type="line"/>
      <point x="503" y="904" type="line"/>
      <point x="287" y="712" type="line"/>
    </contour>
  </outline>
</glyph>
<glyph name="plus" format="2">
  <advance width="600"/>
  <unicode hex="002B"/>
  <outline>
    <contour>
      <point x="253" y="190" type="line"/>
      <point x="347" y="190" type="line"/>
      <point x="347" y="1228" type="line"/>
      <point x="253" y="1228" type="line"/>
    </contour>
    <contour>
      <point x="44" y="665" type="line"/>
      <point x="556" y="665" type="line"/>
      <point x="556" y="755" type="line"/>
      <point x="44" y="755" type="line"/>
    </contour>
  </outline>
</glyph>
<glyph name="comma" format="2">
  <advance width="600"/>
  <unicode hex="002C"/>
  <outline>
    <contour>
      <point x="207" y="-436" type="line"/>
      <point x="289" y="-436" type="line"/>
      <point x="374" y="254" type="line"/>
      <point x="287" y="254" type="line"/>
    </contour>
  </outline>
</glyph>
<glyph name="period" format="2">
  <advance width="600"/>
  <unicode hex="002E"/>
  <outline>
    <contour>
      <point x="300" y="-20" type="curve" smooth="yes"/>
      <point x="355" y="-20"/>
      <point x="400" y="24"/>
      <point x="400" y="79" type="curve" smooth="yes"/>
      <point x="400" y="134"/>
      <point x="355" y="179"/>
      <point x="300" y="179" type="curve" smooth="yes"/>
      <point x="245" y="179"/>
      <point x="200" y="134"/>
      <point x="200" y="79" type="curve" smooth="yes"/>
      <point x="200" y="24"/>
      <point x="245" y="-20"/>
    </contour>
  </outline>
</glyph>
<glyph name="slash" format="2">
  <advance width="600"/>
  <unicode hex="002F"/>
  <outline>
    <contour>
      <point x="56" y="-190" type="line"/>
      <point x="147" y="-190" type="line"/>
      <point x="584" y="1610" type="line"/>
      <point x="493" y="1610" type="line"/>
    </contour>
  </outline>
</glyph>
<glyph name="zero" format="2">
  <advance width="600"/>
  <unicode hex="0030"/>
  <outline>
    <contour>
      <point x="300" y="-20" type="curve" smooth="yes"/>
      <point x="471" y="-20"/>
      <point x="530" y="165"/>
      <point x="530" y="700" type="curve" smooth="yes"/>
      <point x="530" y="1250"/>
      <point x="471" y="1440"/>
      <point x="300" y="1440" type="curve" smooth="yes"/>
      <point x="129" y="1440"/>
      <point x="70" y="1250"/>
      <point x="70" y="700" type="curve" smooth="yes"/>
      <point x="70" y="165"/>
      <point x="129" y="-20"/>
    </contour>
    <contour>
      <point x="300" y="601" type="curve" smooth="yes"/>
      <point x="346" y="601"/>
      <point x="377" y="640"/>
      <point x="377" y="700" type="curve" smooth="yes"/>
      <point x="377" y="760"/>
      <point x="346" y="800"/>
      <point x="300" y="800" type="curve" smooth="yes"/>
      <point x="254" y="800"/>
      <point x="223" y="760"/>
      <point x="223" y="700" type="curve" smooth="yes"/>
      <point x="223" y="640"/>
      <point x="254" y="601"/>
    </contour>
    <contour>
      <point x="300" y="70" type="curve" smooth="yes"/>
      <point x="199" y="70"/>
      <point x="164" y="232"/>
      <point x="164" y="700" type="curve" smooth="yes"/>
      <point x="164" y="1183"/>
      <point x="199" y="1350"/>
      <point x="300" y="1350" type="curve" smooth="yes"/>
      <point x="401" y="1350"/>
      <point x="436" y="1183"/>
      <point x="436" y="700" type="curve" smooth="yes"/>
      <point x="436" y="232"/>
      <point x="401" y="70"/>
    </contour>
  </outline>
</glyph>
<glyph name="one" format="2">
  <advance width="600"/>
  <unicode hex="0031"/>
  <outline>
    <contour>
      <point x="286" y="0" type="line"/>
      <point x="380" y="0" type="line"/>
      <point x="380" y="1420" type="line"/>
      <point x="286" y="1420" type="line"/>
    </contour>
    <contour>
      <point x="108" y="0" type="line"/>
      <point x="295" y="0" type="line"/>
      <point x="295" y="90" type="line"/>
      <point x="108" y="90" type="line"/>
    </contour>
    <contour>
      <point x="372" y="0" type="line"/>
      <point x="502" y="0" type="line"/>
      <point x="502" y="90" type="line"/>
      <point x="372" y="90" type="line"/>
    </contour>
    <contour>
      <point x="116" y="1198" type="line"/>
      <point x="286" y="1314" type="line"/>
      <point x="286" y="1420" type="line"/>
      <point x="116" y="1300" type="line"/>
    </contour>
  </outline>
</glyph>
<glyph name="two" format="2">
  <advance width="600"/>
  <unicode hex="0032"/>
  <outline>
    <contour>
      <point x="87" y="0" type="line"/>
      <point x="172" y="0" type="line"/>
      <point x="172" y="100" type="line"/>
      <point x="394" y="502"/>
      <point x="509" y="842"/>
      <point x="509" y="1093" type="curve" smooth="yes"/>
      <point x="509" y="1331"/>
      <point x="440" y="1440"/>
      <point x="290" y="1440" type="curve" smooth="yes"/>
      <point x="201" y="1440"/>
      <point x="136" y="1400"/>
      <point x="85" y="1312" type="curve"/>
      <point x="149" y="1265" type="line"/>
      <point x="189" y="1323"/>
      <point x="232" y="1350"/>
      <point x="288" y="1350" type="curve" smooth="yes"/>
      <point x="374" y="1350"/>
      <point x="413" y="1269"/>
      <point x="413" y="1093" type="curve" smooth="yes"/>
      <point x="413" y="875"/>
      <point x="301" y="546"/>
      <point x="87" y="133" type="curve"/>
    </contour>
    <contour>
      <point x="115" y="0" type="line"/>
      <point x="527" y="0" type="line"/>
      <point x="527" y="90" type="line"/>
      <point x="115" y="90" type="line"/>
    </contour>
  </outline>
</glyph>
<glyph name="three" format="2">
  <advance width="600"/>
  <unicode hex="0033"/>
  <outline>
    <contour>
      <point x="233" y="-20" type="curve" smooth="yes"/>
      <point x="422" y="-20"/>
      <point x="529" y="127"/>
      <point x="529" y="380" type="curve" smooth="yes"/>
      <point x="529" y="570"/>
      <point x="443" y="720"/>
      <point x="312" y="743" type="curve" smooth="yes"/>
      <point x="194" y="769" type="line"/>
      <point x="203" y="681" type="line"/>
      <point x="218" y="681" type="line" smooth="yes"/>
      <point x="351" y="681"/>
      <point x="433" y="562"/>
      <point x="433" y="380" type="curve" smooth="yes"/>
      <point x="433" y="183"/>
      <point x="358" y="70"/>
      <point x="229" y="70" type="curve" smooth="yes"/>
      <point x="162" y="70"/>
      <point x="124" y="84"/>
      <point x="87" y="95" type="curve"/>
      <point x="79" y="8" type="line"/>
      <point x="123" y="-10"/>
      <point x="174" y="-20"/>
    </contour>
    <contour>
      <point x="203" y="681" type="line"/>
      <point x="320" y="690" type="line"/>
      <point x="320" y="755" type="line"/>
      <point x="438" y="815"/>
      <point x="516" y="934"/>
      <point x="516" y="1122" type="curve" smooth="yes"/>
      <point x="516" y="1324"/>
      <point x="427" y="1440"/>
      <point x="271" y="1440" type="curve" smooth="yes"/>
      <point x="187" y="1440"/>
      <point x="121" y="1412"/>
      <point x="68" y="1337" type="curve"/>
      <point x="123" y="1275" type="line"/>
      <point x="169" y="1329"/>
      <point x="216" y="1350"/>
      <point x="264" y="1350" type="curve" smooth="yes"/>
      <point x="363" y="1350"/>
      <point x="420" y="1267"/>
      <point x="420" y="1122" type="curve" smooth="yes"/>
      <point x="420" y="952"/>
      <point x="340" y="813"/>
      <point x="194" y="769" type="curve"/>
    </contour>
  </outline>
</glyph>
<glyph name="four" format="2">
  <advance width="600"/>
  <unicode hex="0034"/>
  <outline>
    <contour>
      <point x="29" y="326" type="line"/>
      <point x="122" y="326" type="line"/>
      <point x="217" y="1340" type="line"/>
      <point x="123" y="1340" type="line"/>
    </contour>
    <contour>
      <point x="28" y="326" type="line"/>
      <point x="389" y="326" type="line"/>
      <point x="389" y="416" type="line"/>
      <point x="80" y="416" type="line"/>
    </contour>
    <contour>
      <point x="462" y="326" type="line"/>
      <point x="568" y="326" type="line"/>
      <point x="568" y="416" type="line"/>
      <point x="462" y="416" type="line"/>
    </contour>
    <contour>
      <point x="378" y="0" type="line"/>
      <point x="472" y="0" type="line"/>
      <point x="472" y="1420" type="line"/>
      <point x="378" y="1420" type="line"/>
    </contour>
  </outline>
</glyph>
<glyph name="five" format="2">
  <advance width="600"/>
  <unicode hex="0035"/>
  <outline>
    <contour>
      <point x="306" y="-20" type="curve" smooth="yes"/>
      <point x="468" y="-20"/>
      <point x="542" y="130"/>
      <point x="542" y="458" type="curve" smooth="yes"/>
      <point x="542" y="758"/>
      <point x="476" y="896"/>
      <point x="331" y="896" type="curve" smooth="yes"/>
      <point x="281" y="896"/>
      <point x="205" y="870"/>
      <point x="173" y="760" type="curve"/>
      <point x="159" y="760" type="line"/>
      <point x="171" y="680" type="line"/>
      <point x="218" y="768"/>
      <point x="265" y="806"/>
      <point x="314" y="806" type="curve" smooth="yes"/>
      <point x="405" y="806"/>
      <point x="446" y="697"/>
      <point x="446" y="458" type="curve" smooth="yes"/>
      <point x="446" y="192"/>
      <point x="402" y="70"/>
      <point x="307" y="70" type="curve" smooth="yes"/>
      <point x="204" y="70"/>
      <point x="157" y="173"/>
      <point x="157" y="398" type="curve"/>
      <point x="60" y="398" type="line"/>
      <point x="60" y="111"/>
      <point x="137" y="-20"/>
    </contour>
    <contour>
      <point x="101" y="680" type="line"/>
      <point x="171" y="680" type="line"/>
      <point x="193" y="754" type="line"/>
      <point x="203" y="1420" type="line"/>
      <point x="109" y="1420" type="line"/>
    </contour>
    <contour>
      <point x="147" y="1330" type="line"/>
      <point x="500" y="1330" type="line"/>
      <point x="500" y="1420" type="line"/>
      <point x="139" y="1420" type="line"/>
    </contour>
  </outline>
</glyph>
<glyph name="six" format="2">
  <advance width="600"/>
  <unicode hex="0036"/>
  <outline>
    <contour>
      <point x="304" y="-20" type="curve" smooth="yes"/>
      <point x="462" y="-20"/>
      <point x="534" y="128"/>
      <point x="534" y="450" type="curve" smooth="yes"/>
      <point x="534" y="759"/>
      <point x="470" y="900"/>
      <point x="329" y="900" type="curve" smooth="yes"/>
      <point x="256" y="900"/>
      <point x="202" y="832"/>
      <point x="184" y="708" type="curve"/>
      <point x="124" y="708" type="line"/>
      <point x="76" y="476" type="line"/>
      <point x="76" y="136"/>
      <point x="148" y="-20"/>
    </contour>
    <contour>
      <point x="308" y="70" type="curve" smooth="yes"/>
      <point x="215" y="70"/>
      <point x="173" y="186"/>
      <point x="173" y="440" type="curve" smooth="yes"/>
      <point x="173" y="675"/>
      <point x="224" y="810"/>
      <point x="313" y="810" type="curve" smooth="yes"/>
      <point x="399" y="810"/>
      <point x="438" y="697"/>
      <point x="438" y="450" type="curve" smooth="yes"/>
      <point x="438" y="189"/>
      <point x="397" y="70"/>
    </contour>
    <contour>
      <point x="76" y="476" type="line"/>
      <point x="174" y="533" type="line"/>
      <point x="174" y="666" type="line"/>
      <point x="174" y="1159"/>
      <point x="239" y="1312"/>
      <point x="460" y="1336" type="curve"/>
      <point x="453" y="1426" type="line"/>
      <point x="162" y="1396"/>
      <point x="76" y="1213"/>
      <point x="76" y="624" type="curve" smooth="yes"/>
    </contour>
  </outline>
</glyph>
<glyph name="seven" format="2">
  <advance width="600"/>
  <unicode hex="0037"/>
  <outline>
    <contour>
      <point x="244" y="0" type="line"/>
      <point x="338" y="0" type="line"/>
      <point x="577" y="1420" type="line"/>
      <point x="483" y="1420" type="line"/>
    </contour>
    <contour>
      <point x="70" y="982" type="line"/>
      <point x="164" y="982" type="line"/>
      <point x="164" y="1390" type="line"/>
      <point x="70" y="1390" type="line"/>
    </contour>
    <contour>
      <point x="70" y="1330" type="line"/>
      <point x="530" y="1330" type="line"/>
      <point x="577" y="1420" type="line"/>
      <point x="70" y="1420" type="line"/>
    </contour>
  </outline>
</glyph>
<glyph name="eight" format="2">
  <advance width="600"/>
  <unicode hex="0038"/>
  <outline>
    <contour>
      <point x="300" y="-20" type="curve" smooth="yes"/>
      <point x="458" y="-20"/>
      <point x="540" y="114"/>
      <point x="540" y="370" type="curve" smooth="yes"/>
      <point x="540" y="623"/>
      <point x="451" y="772"/>
      <point x="300" y="772" type="curve" smooth="yes"/>
      <point x="149" y="772"/>
      <point x="60" y="623"/>
      <point x="60" y="370" type="curve" smooth="yes"/>
      <point x="60" y="114"/>
      <point x="142" y="-20"/>
    </contour>
    <contour>
      <point x="300" y="70" type="curve" smooth="yes"/>
      <point x="205" y="70"/>
      <point x="156" y="176"/>
      <point x="156" y="380" type="curve" smooth="yes"/>
      <point x="156" y="584"/>
      <point x="209" y="705"/>
      <point x="300" y="705" type="curve" smooth="yes"/>
      <point x="391" y="705"/>
      <point x="444" y="584"/>
      <point x="444" y="380" type="curve" smooth="yes"/>
      <point x="444" y="176"/>
      <point x="395" y="70"/>
    </contour>
    <contour>
      <point x="222" y="726" type="line"/>
      <point x="379" y="726" type="line"/>
      <point x="379" y="788" type="line"/>
      <point x="222" y="788" type="line"/>
    </contour>
    <contour>
      <point x="300" y="795" type="curve" smooth="yes"/>
      <point x="221" y="795"/>
      <point x="175" y="893"/>
      <point x="175" y="1060" type="curve" smooth="yes"/>
      <point x="175" y="1251"/>
      <point x="218" y="1350"/>
      <point x="300" y="1350" type="curve" smooth="yes"/>
      <point x="382" y="1350"/>
      <point x="425" y="1251"/>
      <point x="425" y="1060" type="curve" smooth="yes"/>
      <point x="425" y="893"/>
      <point x="379" y="795"/>
    </contour>
    <contour>
      <point x="300" y="738" type="curve" smooth="yes"/>
      <point x="439" y="738"/>
      <point x="521" y="872"/>
      <point x="521" y="1100" type="curve" smooth="yes"/>
      <point x="521" y="1323"/>
      <point x="445" y="1440"/>
      <point x="300" y="1440" type="curve" smooth="yes"/>
      <point x="155" y="1440"/>
      <point x="79" y="1323"/>
      <point x="79" y="1100" type="curve" smooth="yes"/>
      <point x="79" y="872"/>
      <point x="161" y="738"/>
    </contour>
  </outline>
</glyph>
<glyph name="nine" format="2">
  <advance width="600"/>
  <unicode hex="0039"/>
  <outline>
    <contour>
      <point x="276" y="507" type="curve" smooth="yes"/>
      <point x="349" y="507"/>
      <point x="404" y="575"/>
      <point x="421" y="699" type="curve"/>
      <point x="481" y="699" type="line"/>
      <point x="529" y="931" type="line"/>
      <point x="529" y="1271"/>
      <point x="457" y="1427"/>
      <point x="301" y="1427" type="curve" smooth="yes"/>
      <point x="143" y="1427"/>
      <point x="71" y="1279"/>
      <point x="71" y="957" type="curve" smooth="yes"/>
      <point x="71" y="648"/>
      <point x="135" y="507"/>
    </contour>
    <contour>
      <point x="132" y="-19" type="line"/>
      <point x="438" y="11"/>
      <point x="529" y="194"/>
      <point x="529" y="783" type="curve" smooth="yes"/>
      <point x="529" y="931" type="line"/>
      <point x="431" y="874" type="line"/>
      <point x="431" y="741" type="line"/>
      <point x="431" y="248"/>
      <point x="362" y="95"/>
      <point x="125" y="71" type="curve"/>
    </contour>
    <contour>
      <point x="292" y="597" type="curve" smooth="yes"/>
      <point x="206" y="597"/>
      <point x="167" y="710"/>
      <point x="167" y="957" type="curve" smooth="yes"/>
      <point x="167" y="1218"/>
      <point x="208" y="1337"/>
      <point x="297" y="1337" type="curve" smooth="yes"/>
      <point x="390" y="1337"/>
      <point x="432" y="1221"/>
      <point x="432" y="967" type="curve" smooth="yes"/>
      <point x="432" y="732"/>
      <point x="381" y="597"/>
    </contour>
  </outline>
</glyph>
<glyph name="less" format="2">
  <advance width="600"/>
  <unicode hex="003C"/>
  <outline>
    <contour>
      <point x="523" y="214" type="line"/>
      <point x="523" y="334" type="line"/>
      <point x="127" y="705" type="line"/>
      <point x="127" y="713" type="line"/>
      <point x="523" y="1084" type="line"/>
      <point x="523" y="1204" type="line"/>
      <point x="53" y="765" type="line"/>
      <point x="53" y="653" type="line"/>
    </contour>
  </outline>
</glyph>
<glyph name="equal" format="2">
  <advance width="600"/>
  <unicode hex="003D"/>
  <outline>
    <contour>
      <point x="44" y="874" type="line"/>
      <point x="556" y="874" type="line"/>
      <point x="556" y="964" type="line"/>
      <point x="44" y="964" type="line"/>
    </contour>
    <contour>
      <point x="44" y="454" type="line"/>
      <point x="556" y="454" type="line"/>
      <point x="556" y="544" type="line"/>
      <point x="44" y="544" type="line"/>
    </contour>
  </outline>
</glyph>
<glyph name="greater" format="2">
  <advance width="600"/>
  <unicode hex="003E"/>
  <outline>
    <contour>
      <point x="77" y="214" type="line"/>
      <point x="547" y="653" type="line"/>
      <point x="547" y="765" type="line"/>
      <point x="77" y="1204" type="line"/>
      <point x="77" y="1084" type="line"/>
      <point x="473" y="713" type="line"/>
      <point x="473" y="705" type="line"/>
      <point x="77" y="334" type="line"/>
    </contour>
  </outline>
</glyph>
<glyph name="question" format="2">
  <advance width="600"/>
  <unicode hex="003F"/>
  <outline>
    <contour>
      <point x="236" y="356" type="line"/>
      <point x="330" y="356" type="line"/>
      <point x="330" y="589" type="line" smooth="yes"/>
      <point x="330" y="761"/>
      <point x="363" y="854"/>
      <point x="393" y="930" type="curve" smooth="yes"/>
      <point x="435" y="1034"/>
      <point x="485" y="1115"/>
      <point x="485" y="1233" type="curve" smooth="yes"/>
      <point x="485" y="1365"/>
      <point x="417" y="1440"/>
      <point x="299" y="1440" type="curve"/>
      <point x="298" y="1350" type="line"/>
      <point x="356" y="1350"/>
      <point x="389" y="1304"/>
      <point x="389" y="1223" type="curve" smooth="yes"/>
      <point x="389" y="1125"/>
      <point x="348" y="1056"/>
      <point x="314" y="976" type="curve" smooth="yes"/>
      <point x="270" y="871"/>
      <point x="236" y="775"/>
      <point x="236" y="624" type="curve" smooth="yes"/>
    </contour>
    <contour>
      <point x="166" y="1228" type="line"/>
      <point x="205" y="1314"/>
      <point x="250" y="1350"/>
      <point x="298" y="1350" type="curve"/>
      <point x="299" y="1440" type="line"/>
      <point x="213" y="1440"/>
      <point x="137" y="1390"/>
      <point x="83" y="1271" type="curve"/>
    </contour>
    <component base="period" xOffset="-17"/>
  </outline>
</glyph>
<glyph name="at" format="2">
  <advance width="600"/>
  <unicode hex="0040"/>
  <outline>
    <contour>
      <point x="379" y="-203" type="curve"/>
      <point x="432" y="-203"/>
      <point x="463" y="-193"/>
      <point x="508" y="-178" type="curve"/>
      <point x="508" y="-88" type="line"/>
      <point x="470" y="-98"/>
      <point x="435" y="-113"/>
      <point x="379" y="-113" type="curve"/>
      <point x="158" y="-113"/>
      <point x="63" y="99"/>
      <point x="63" y="598" type="curve" smooth="yes"/>
      <point x="63" y="1101"/>
      <point x="150" y="1349"/>
      <point x="326" y="1349" type="curve"/>
      <point x="465" y="1349"/>
      <point x="539" y="1196"/>
      <point x="539" y="887" type="curve"/>
      <point x="539" y="766"/>
      <point x="539" y="645"/>
      <point x="539" y="524" type="curve"/>
      <point x="600" y="524" type="line"/>
      <point x="600" y="647"/>
      <point x="600" y="770"/>
      <point x="600" y="893" type="curve"/>
      <point x="600" y="1258"/>
      <point x="508" y="1439"/>
      <point x="326" y="1439" type="curve"/>
      <point x="108" y="1439"/>
      <point x="0" y="1160"/>
      <point x="0" y="598" type="curve" smooth="yes"/>
      <point x="0" y="36"/>
      <point x="113" y="-203"/>
    </contour>
    <contour>
      <point x="379" y="148" type="curve"/>
      <point x="458" y="148"/>
      <point x="543" y="264"/>
      <point x="543" y="358" type="curve" smooth="yes"/>
      <point x="543" y="370" type="line"/>
      <point x="543" y="897" type="line"/>
      <point x="543" y="919" type="line" smooth="yes"/>
      <point x="543" y="1001"/>
      <point x="453" y="1089"/>
      <point x="381" y="1089" type="curve"/>
      <point x="248" y="1089"/>
      <point x="173" y="935"/>
      <point x="173" y="619" type="curve" smooth="yes"/>
      <point x="173" y="320"/>
      <point x="248" y="148"/>
    </contour>
    <contour>
      <point x="381" y="238" type="curve"/>
      <point x="286" y="238"/>
      <point x="236" y="376"/>
      <point x="236" y="620" type="curve" smooth="yes"/>
      <point x="236" y="884"/>
      <point x="288" y="999"/>
      <point x="381" y="999" type="curve"/>
      <point x="482" y="999"/>
      <point x="539" y="884"/>
      <point x="539" y="620" type="curve"/>
      <point x="539" y="376"/>
      <point x="478" y="238"/>
    </contour>
    <contour>
      <point x="539" y="168" type="line"/>
      <point x="600" y="168" type="line"/>
      <point x="600" y="769" type="line"/>
      <point x="539" y="769" type="line"/>
    </contour>
  </outline>
</glyph>
<glyph name="A" format="2">
  <advance width="600"/>
  <unicode hex="0041"/>
  <anchor x="300" y="0" name="bottom"/>
  <anchor x="559" y="10" name="ogonek"/>
  <anchor x="300" y="1420" name="top"/>
  <outline>
    <contour>
      <point x="29" y="0" type="line"/>
      <point x="123" y="0" type="line"/>
      <point x="297" y="1313" type="line"/>
      <point x="303" y="1313" type="line"/>
      <point x="477" y="0" type="line"/>
      <point x="571" y="0" type="line"/>
      <point x="361" y="1420" type="line"/>
      <point x="239" y="1420" type="line"/>
    </contour>
    <contour>
      <point x="103" y="396" type="line"/>
      <point x="492" y="396" type="line"/>
      <point x="492" y="486" type="line"/>
      <point x="103" y="486" type="line"/>
    </contour>
  </outline>
</glyph>
<glyph name="B" format="2">
  <advance width="600"/>
  <unicode hex="0042"/>
  <anchor x="281" y="0" name="bottom"/>
  <anchor x="281" y="1420" name="top"/>
  <outline>
    <contour>
      <point x="176" y="0" type="line"/>
      <point x="258" y="0" type="line" smooth="yes"/>
      <point x="447" y="0"/>
      <point x="555" y="138"/>
      <point x="555" y="380" type="curve" smooth="yes"/>
      <point x="555" y="615"/>
      <point x="485" y="750"/>
      <point x="361" y="750" type="curve" smooth="yes"/>
      <point x="167" y="750" type="line"/>
      <point x="178" y="705" type="line"/>
      <point x="285" y="705" type="line" smooth="yes"/>
      <point x="396" y="705"/>
      <point x="459" y="586"/>
      <point x="459" y="380" type="curve" smooth="yes"/>
      <point x="459" y="195"/>
      <point x="382" y="90"/>
      <point x="247" y="90" type="curve" smooth="yes"/>
      <point x="176" y="90" type="line"/>
    </contour>
    <contour>
      <point x="89" y="0" type="line"/>
      <point x="183" y="0" type="line"/>
      <point x="183" y="1420" type="line"/>
      <point x="89" y="1420" type="line"/>
    </contour>
    <contour>
      <point x="160" y="733" type="line"/>
      <point x="367" y="733" type="line"/>
      <point x="367" y="771" type="line"/>
      <point x="160" y="771" type="line"/>
    </contour>
    <contour>
      <point x="176" y="758" type="line"/>
      <point x="340" y="758" type="line" smooth="yes"/>
      <point x="447" y="758"/>
      <point x="508" y="871"/>
      <point x="508" y="1070" type="curve" smooth="yes"/>
      <point x="508" y="1292"/>
      <point x="411" y="1420"/>
      <point x="241" y="1420" type="curve" smooth="yes"/>
      <point x="167" y="1420" type="line"/>
      <point x="178" y="1330" type="line"/>
      <point x="242" y="1330" type="line" smooth="yes"/>
      <point x="350" y="1330"/>
      <point x="412" y="1236"/>
      <point x="412" y="1070" type="curve" smooth="yes"/>
      <point x="412" y="896"/>
      <point x="365" y="795"/>
      <point x="283" y="795" type="curve" smooth="yes"/>
      <point x="176" y="795" type="line"/>
    </contour>
  </outline>
</glyph>
<glyph name="C" format="2">
  <advance width="600"/>
  <unicode hex="0043"/>
  <anchor x="334" y="0" name="bottom"/>
  <anchor x="349" y="1420" name="top"/>
  <outline>
    <contour>
      <point x="364" y="-20" type="curve" smooth="yes"/>
      <point x="426" y="-20"/>
      <point x="488" y="-5"/>
      <point x="547" y="27" type="curve"/>
      <point x="530" y="116" type="line"/>
      <point x="476" y="84"/>
      <point x="426" y="70"/>
      <point x="375" y="70" type="curve" smooth="yes"/>
      <point x="216" y="70"/>
      <point x="153" y="256"/>
      <point x="153" y="722" type="curve" smooth="yes"/>
      <point x="153" y="1171"/>
      <point x="210" y="1350"/>
      <point x="352" y="1350" type="curve" smooth="yes"/>
      <point x="407" y="1350"/>
      <point x="442" y="1325"/>
      <point x="463" y="1269" type="curve"/>
      <point x="546" y="1305" type="line"/>
      <point x="506" y="1398"/>
      <point x="445" y="1440"/>
      <point x="351" y="1440" type="curve" smooth="yes"/>
      <point x="141" y="1440"/>
      <point x="57" y="1232"/>
      <point x="57" y="712" type="curve" smooth="yes"/>
      <point x="57" y="189"/>
      <point x="145" y="-20"/>
    </contour>
  </outline>
</glyph>
<glyph name="D" format="2">
  <advance width="600"/>
  <unicode hex="0044"/>
  <anchor x="269" y="0" name="bottom"/>
  <anchor x="269" y="710" name="center"/>
  <anchor x="269" y="1420" name="top"/>
  <outline>
    <contour>
      <point x="160" y="0" type="line"/>
      <point x="191" y="0" type="line" smooth="yes"/>
      <point x="436" y="0"/>
      <point x="558" y="229"/>
      <point x="558" y="690" type="curve" smooth="yes"/>
      <point x="558" y="1178"/>
      <point x="436" y="1420"/>
      <point x="191" y="1420" type="curve" smooth="yes"/>
      <point x="150" y="1420" type="line"/>
      <point x="161" y="1330" type="line"/>
      <point x="191" y="1330" type="line" smooth="yes"/>
      <point x="371" y="1330"/>
      <point x="462" y="1118"/>
      <point x="462" y="690" type="curve" smooth="yes"/>
      <point x="462" y="289"/>
      <point x="371" y="90"/>
      <point x="191" y="90" type="curve" smooth="yes"/>
      <point x="160" y="90" type="line"/>
    </contour>
    <contour>
      <point x="72" y="0" type="line"/>
      <point x="166" y="0" type="line"/>
      <point x="166" y="1420" type="line"/>
      <point x="72" y="1420" type="line"/>
    </contour>
  </outline>
</glyph>
<glyph name="E" format="2">
  <advance width="600"/>
  <unicode hex="0045"/>
  <anchor x="314" y="0" name="bottom"/>
  <anchor x="517" y="10" name="ogonek"/>
  <anchor x="314" y="1420" name="top"/>
  <anchor x="39" y="1420" name="topleft"/>
  <outline>
    <contour>
      <point x="98" y="0" type="line"/>
      <point x="192" y="0" type="line"/>
      <point x="192" y="1420" type="line"/>
      <point x="98" y="1420" type="line"/>
    </contour>
    <contour>
      <point x="98" y="0" type="line"/>
      <point x="530" y="0" type="line"/>
      <point x="530" y="90" type="line"/>
      <point x="98" y="90" type="line"/>
    </contour>
    <contour>
      <point x="98" y="666" type="line"/>
      <point x="449" y="666" type="line"/>
      <point x="449" y="756" type="line"/>
      <point x="98" y="756" type="line"/>
    </contour>
    <contour>
      <point x="98" y="1330" type="line"/>
      <point x="530" y="1330" type="line"/>
      <point x="530" y="1420" type="line"/>
      <point x="98" y="1420" type="line"/>
    </contour>
  </outline>
</glyph>
<glyph name="F" format="2">
  <advance width="600"/>
  <unicode hex="0046"/>
  <anchor x="328" y="0" name="bottom"/>
  <anchor x="328" y="1420" name="top"/>
  <outline>
    <contour>
      <point x="107" y="0" type="line"/>
      <point x="201" y="0" type="line"/>
      <point x="201" y="1420" type="line"/>
      <point x="107" y="1420" type="line"/>
    </contour>
    <contour>
      <point x="107" y="606" type="line"/>
      <point x="467" y="606" type="line"/>
      <point x="467" y="696" type="line"/>
      <point x="107" y="696" type="line"/>
    </contour>
    <contour>
      <point x="107" y="1330" type="line"/>
      <point x="539" y="1330" type="line"/>
      <point x="539" y="1420" type="line"/>
      <point x="107" y="1420" type="line"/>
    </contour>
  </outline>
</glyph>
<glyph name="G" format="2">
  <advance width="600"/>
  <unicode hex="0047"/>
  <anchor x="349" y="0" name="bottom"/>
  <anchor x="339" y="1420" name="top"/>
  <outline>
    <contour>
      <point x="339" y="-20" type="curve" smooth="yes"/>
      <point x="426" y="-20"/>
      <point x="498" y="19"/>
      <point x="532" y="40" type="curve"/>
      <point x="498" y="120" type="line"/>
      <point x="462" y="100"/>
      <point x="416" y="70"/>
      <point x="352" y="70" type="curve" smooth="yes"/>
      <point x="202" y="70"/>
      <point x="133" y="275"/>
      <point x="133" y="722" type="curve" smooth="yes"/>
      <point x="133" y="1153"/>
      <point x="205" y="1350"/>
      <point x="361" y="1350" type="curve" smooth="yes"/>
      <point x="408" y="1350"/>
      <point x="444" y="1322"/>
      <point x="467" y="1267" type="curve"/>
      <point x="548" y="1305" type="line"/>
      <point x="513" y="1394"/>
      <point x="446" y="1440"/>
      <point x="355" y="1440" type="curve" smooth="yes"/>
      <point x="139" y="1440"/>
      <point x="39" y="1211"/>
      <point x="39" y="712" type="curve" smooth="yes"/>
      <point x="39" y="210"/>
      <point x="133" y="-20"/>
    </contour>
    <contour>
      <point x="438" y="40" type="line"/>
      <point x="532" y="40" type="line"/>
      <point x="532" y="660" type="line"/>
      <point x="438" y="660" type="line"/>
    </contour>
    <contour>
      <point x="292" y="572" type="line"/>
      <point x="528" y="572" type="line"/>
      <point x="528" y="660" type="line"/>
      <point x="292" y="660" type="line"/>
    </contour>
  </outline>
</glyph>
<glyph name="H" format="2">
  <advance width="600"/>
  <unicode hex="0048"/>
  <anchor x="300" y="0" name="bottom"/>
  <anchor x="300" y="710" name="center"/>
  <anchor x="300" y="1420" name="top"/>
  <anchor x="46" y="1420" name="topleft"/>
  <outline>
    <contour>
      <point x="417" y="0" type="line"/>
      <point x="511" y="0" type="line"/>
      <point x="511" y="1420" type="line"/>
      <point x="417" y="1420" type="line"/>
    </contour>
    <contour>
      <point x="89" y="0" type="line"/>
      <point x="183" y="0" type="line"/>
      <point x="183" y="1420" type="line"/>
      <point x="89" y="1420" type="line"/>
    </contour>
    <contour>
      <point x="108" y="662" type="line"/>
      <point x="494" y="662" type="line"/>
      <point x="494" y="752" type="line"/>
      <point x="108" y="752" type="line"/>
    </contour>
  </outline>
</glyph>
<glyph name="I" format="2">
  <advance width="600"/>
  <unicode hex="0049"/>
  <anchor x="300" y="0" name="bottom"/>
  <anchor x="300" y="10" name="ogonek"/>
  <anchor x="300" y="1420" name="top"/>
  <anchor x="69" y="1420" name="topleft"/>
  <outline>
    <contour>
      <point x="253" y="0" type="line"/>
      <point x="347" y="0" type="line"/>
      <point x="347" y="1420" type="line"/>
      <point x="253" y="1420" type="line"/>
    </contour>
    <contour>
      <point x="92" y="0" type="line"/>
      <point x="508" y="0" type="line"/>
      <point x="508" y="90" type="line"/>
      <point x="92" y="90" type="line"/>
    </contour>
    <contour>
      <point x="92" y="1330" type="line"/>
      <point x="508" y="1330" type="line"/>
      <point x="508" y="1420" type="line"/>
      <point x="92" y="1420" type="line"/>
    </contour>
  </outline>
</glyph>
<glyph name="J" format="2">
  <advance width="600"/>
  <unicode hex="004A"/>
  <anchor x="300" y="0" name="bottom"/>
  <anchor x="390" y="1420" name="top"/>
  <outline>
    <contour>
      <point x="288" y="-20" type="curve" smooth="yes"/>
      <point x="442" y="-20"/>
      <point x="522" y="91"/>
      <point x="522" y="304" type="curve" smooth="yes"/>
      <point x="522" y="1420" type="line"/>
      <point x="428" y="1420" type="line"/>
      <point x="428" y="304" type="line" smooth="yes"/>
      <point x="428" y="150"/>
      <point x="381" y="70"/>
      <point x="290" y="70" type="curve" smooth="yes"/>
      <point x="197" y="70"/>
      <point x="148" y="150"/>
      <point x="148" y="304" type="curve"/>
      <point x="54" y="304" type="line"/>
      <point x="54" y="91"/>
      <point x="134" y="-20"/>
    </contour>
    <contour>
      <point x="238" y="1330" type="line"/>
      <point x="489" y="1330" type="line"/>
      <point x="489" y="1420" type="line"/>
      <point x="238" y="1420" type="line"/>
    </contour>
  </outline>
</glyph>
<glyph name="K" format="2">
  <advance width="600"/>
  <unicode hex="004B"/>
  <anchor x="310" y="0" name="bottom"/>
  <anchor x="310" y="1420" name="top"/>
  <outline>
    <contour>
      <point x="120" y="492" type="line"/>
      <point x="392" y="492"/>
      <point x="547" y="830"/>
      <point x="547" y="1420" type="curve"/>
      <point x="453" y="1420" type="line"/>
      <point x="453" y="887"/>
      <point x="342" y="582"/>
      <point x="129" y="582" type="curve"/>
    </contour>
    <contour>
      <point x="486" y="0" type="line"/>
      <point x="580" y="0" type="line"/>
      <point x="372" y="710" type="line"/>
      <point x="299" y="650" type="line"/>
    </contour>
    <contour>
      <point x="76" y="0" type="line"/>
      <point x="170" y="0" type="line"/>
      <point x="170" y="1420" type="line"/>
      <point x="76" y="1420" type="line"/>
    </contour>
  </outline>
</glyph>
<glyph name="L" format="2">
  <advance width="600"/>
  <unicode hex="004C"/>
  <anchor x="309" y="0" name="bottom"/>
  <anchor x="300" y="710" name="center"/>
  <anchor x="135" y="1420" name="top"/>
  <anchor x="562" y="1420" name="topright"/>
  <outline>
    <contour>
      <point x="98" y="0" type="line"/>
      <point x="192" y="0" type="line"/>
      <point x="192" y="1420" type="line"/>
      <point x="98" y="1420" type="line"/>
    </contour>
    <contour>
      <point x="98" y="0" type="line"/>
      <point x="530" y="0" type="line"/>
      <point x="530" y="90" type="line"/>
      <point x="98" y="90" type="line"/>
    </contour>
  </outline>
</glyph>
<glyph name="M" format="2">
  <advance width="600"/>
  <unicode hex="004D"/>
  <anchor x="300" y="0" name="bottom"/>
  <anchor x="300" y="1420" name="top"/>
  <outline>
    <contour>
      <point x="290" y="660" type="line"/>
      <point x="349" y="660" type="line"/>
      <point x="416" y="1332" type="line"/>
      <point x="448" y="1332" type="line"/>
      <point x="448" y="1420" type="line"/>
      <point x="364" y="1420" type="line"/>
      <point x="302" y="748" type="line"/>
      <point x="299" y="748" type="line"/>
    </contour>
    <contour>
      <point x="72" y="0" type="line"/>
      <point x="166" y="0" type="line"/>
      <point x="166" y="1420" type="line"/>
      <point x="72" y="1420" type="line"/>
    </contour>
    <contour>
      <point x="241" y="660" type="line"/>
      <point x="308" y="660" type="line"/>
      <point x="300" y="748" type="line"/>
      <point x="298" y="748" type="line"/>
      <point x="236" y="1420" type="line"/>
      <point x="156" y="1420" type="line"/>
      <point x="156" y="1332" type="line"/>
      <point x="184" y="1332" type="line"/>
    </contour>
    <contour>
      <point x="434" y="0" type="line"/>
      <point x="528" y="0" type="line"/>
      <point x="528" y="1420" type="line"/>
      <point x="434" y="1420" type="line"/>
    </contour>
  </outline>
</glyph>
<glyph name="N" format="2">
  <advance width="600"/>
  <unicode hex="004E"/>
  <anchor x="300" y="0" name="bottom"/>
  <anchor x="300" y="1420" name="top"/>
  <outline>
    <contour>
      <point x="333" y="0" type="line"/>
      <point x="428" y="0" type="line"/>
      <point x="428" y="88" type="line"/>
      <point x="399" y="88" type="line"/>
      <point x="268" y="1420" type="line"/>
      <point x="159" y="1420" type="line"/>
      <point x="159" y="1332" type="line"/>
      <point x="202" y="1332" type="line"/>
    </contour>
    <contour>
      <point x="92" y="0" type="line"/>
      <point x="186" y="0" type="line"/>
      <point x="186" y="1420" type="line"/>
      <point x="92" y="1420" type="line"/>
    </contour>
    <contour>
      <point x="414" y="0" type="line"/>
      <point x="508" y="0" type="line"/>
      <point x="508" y="1420" type="line"/>
      <point x="414" y="1420" type="line"/>
    </contour>
  </outline>
</glyph>
<glyph name="O" format="2">
  <advance width="600"/>
  <unicode hex="004F"/>
  <anchor x="300" y="0" name="bottom"/>
  <anchor x="300" y="710" name="center"/>
  <anchor x="391" y="10" name="ogonek"/>
  <anchor x="300" y="1420" name="top"/>
  <anchor x="4" y="1420" name="topleft"/>
  <anchor x="596" y="1420" name="topright"/>
  <outline>
    <contour>
      <point x="300" y="-20" type="curve" smooth="yes"/>
      <point x="479" y="-20"/>
      <point x="550" y="186"/>
      <point x="550" y="700" type="curve" smooth="yes"/>
      <point x="550" y="1229"/>
      <point x="479" y="1440"/>
      <point x="300" y="1440" type="curve" smooth="yes"/>
      <point x="121" y="1440"/>
      <point x="50" y="1229"/>
      <point x="50" y="700" type="curve" smooth="yes"/>
      <point x="50" y="186"/>
      <point x="121" y="-20"/>
    </contour>
    <contour>
      <point x="300" y="70" type="curve" smooth="yes"/>
      <point x="190" y="70"/>
      <point x="146" y="250"/>
      <point x="146" y="700" type="curve" smooth="yes"/>
      <point x="146" y="1164"/>
      <point x="190" y="1350"/>
      <point x="300" y="1350" type="curve" smooth="yes"/>
      <point x="410" y="1350"/>
      <point x="454" y="1164"/>
      <point x="454" y="700" type="curve" smooth="yes"/>
      <point x="454" y="250"/>
      <point x="410" y="70"/>
    </contour>
  </outline>
</glyph>
<glyph name="P" format="2">
  <advance width="600"/>
  <unicode hex="0050"/>
  <anchor x="282" y="0" name="bottom"/>
  <anchor x="282" y="1420" name="top"/>
  <outline>
    <contour>
      <point x="176" y="489" type="line"/>
      <point x="255" y="489" type="line" smooth="yes"/>
      <point x="442" y="489"/>
      <point x="545" y="658"/>
      <point x="545" y="955" type="curve" smooth="yes"/>
      <point x="545" y="1251"/>
      <point x="442" y="1420"/>
      <point x="255" y="1420" type="curve" smooth="yes"/>
      <point x="178" y="1420" type="line"/>
      <point x="178" y="1330" type="line"/>
      <point x="255" y="1330" type="line" smooth="yes"/>
      <point x="380" y="1330"/>
      <point x="449" y="1194"/>
      <point x="449" y="955" type="curve" smooth="yes"/>
      <point x="449" y="716"/>
      <point x="380" y="579"/>
      <point x="255" y="579" type="curve" smooth="yes"/>
      <point x="176" y="579" type="line"/>
    </contour>
    <contour>
      <point x="93" y="0" type="line"/>
      <point x="187" y="0" type="line"/>
      <point x="187" y="1420" type="line"/>
      <point x="93" y="1420" type="line"/>
    </contour>
  </outline>
</glyph>
<glyph name="Q" format="2">
  <advance width="600"/>
  <unicode hex="0051"/>
  <anchor x="310" y="-460" name="bottom"/>
  <anchor x="300" y="710" name="center"/>
  <anchor x="391" y="10" name="ogonek"/>
  <anchor x="300" y="1420" name="top"/>
  <anchor x="4" y="1420" name="topleft"/>
  <anchor x="596" y="1420" name="topright"/>
  <outline>
    <contour>
      <point x="478" y="-460" type="curve" smooth="yes"/>
      <point x="510" y="-460" type="line"/>
      <point x="522" y="-372" type="line"/>
      <point x="478" y="-372" type="line" smooth="yes"/>
      <point x="387" y="-372"/>
      <point x="350" y="-318"/>
      <point x="350" y="-184" type="curve" smooth="yes"/>
      <point x="350" y="42" type="line"/>
      <point x="260" y="42" type="line"/>
      <point x="260" y="-182" type="line" smooth="yes"/>
      <point x="260" y="-381"/>
      <point x="322" y="-460"/>
    </contour>
    <component base="O"/>
  </outline>
</glyph>
<glyph name="R" format="2">
  <advance width="600"/>
  <unicode hex="0052"/>
  <anchor x="305" y="0" name="bottom"/>
  <anchor x="281" y="1420" name="top"/>
  <outline>
    <contour>
      <point x="159" y="589" type="line"/>
      <point x="254" y="589" type="line" smooth="yes"/>
      <point x="437" y="589"/>
      <point x="542" y="743"/>
      <point x="542" y="1010" type="curve" smooth="yes"/>
      <point x="542" y="1271"/>
      <point x="437" y="1420"/>
      <point x="254" y="1420" type="curve" smooth="yes"/>
      <point x="149" y="1420" type="line"/>
      <point x="160" y="1330" type="line"/>
      <point x="254" y="1330" type="line" smooth="yes"/>
      <point x="376" y="1330"/>
      <point x="446" y="1206"/>
      <point x="446" y="990" type="curve" smooth="yes"/>
      <point x="446" y="793"/>
      <point x="376" y="681"/>
      <point x="254" y="681" type="curve" smooth="yes"/>
      <point x="159" y="681" type="line"/>
    </contour>
    <contour>
      <point x="73" y="0" type="line"/>
      <point x="167" y="0" type="line"/>
      <point x="167" y="1420" type="line"/>
      <point x="73" y="1420" type="line"/>
    </contour>
    <contour>
      <point x="471" y="0" type="line"/>
      <point x="567" y="0" type="line"/>
      <point x="398" y="668" type="line"/>
      <point x="286" y="668" type="line"/>
    </contour>
  </outline>
</glyph>
<glyph name="S" format="2">
  <advance width="600"/>
  <unicode hex="0053"/>
  <anchor x="305" y="0" name="bottom"/>
  <anchor x="309" y="1420" name="top"/>
  <outline>
    <contour>
      <point x="268" y="-20" type="curve" smooth="yes"/>
      <point x="434" y="-20"/>
      <point x="520" y="71"/>
      <point x="520" y="246" type="curve" smooth="yes"/>
      <point x="520" y="373"/>
      <point x="470" y="519"/>
      <point x="382" y="680" type="curve" smooth="yes"/>
      <point x="282" y="864" type="line" smooth="yes"/>
      <point x="219" y="979"/>
      <point x="187" y="1086"/>
      <point x="187" y="1181" type="curve" smooth="yes"/>
      <point x="187" y="1292"/>
      <point x="233" y="1350"/>
      <point x="321" y="1350" type="curve" smooth="yes"/>
      <point x="375" y="1350"/>
      <point x="426" y="1330"/>
      <point x="483" y="1285" type="curve"/>
      <point x="532" y="1354" type="line"/>
      <point x="462" y="1413"/>
      <point x="396" y="1440"/>
      <point x="321" y="1440" type="curve" smooth="yes"/>
      <point x="171" y="1440"/>
      <point x="92" y="1351"/>
      <point x="92" y="1181" type="curve" smooth="yes"/>
      <point x="92" y="1072"/>
      <point x="125" y="950"/>
      <point x="191" y="824" type="curve" smooth="yes"/>
      <point x="295" y="628" type="line" smooth="yes"/>
      <point x="376" y="475"/>
      <point x="424" y="347"/>
      <point x="424" y="246" type="curve" smooth="yes"/>
      <point x="424" y="131"/>
      <point x="373" y="70"/>
      <point x="276" y="70" type="curve" smooth="yes"/>
      <point x="216" y="70"/>
      <point x="156" y="85"/>
      <point x="94" y="115" type="curve"/>
      <point x="85" y="18" type="line"/>
      <point x="136" y="-6"/>
      <point x="196" y="-20"/>
    </contour>
  </outline>
</glyph>
<glyph name="T" format="2">
  <advance width="600"/>
  <unicode hex="0054"/>
  <anchor x="297" y="0" name="bottom"/>
  <anchor x="300" y="710" name="center"/>
  <anchor x="300" y="1420" name="top"/>
  <outline>
    <contour>
      <point x="253" y="0" type="line"/>
      <point x="347" y="0" type="line"/>
      <point x="347" y="1420" type="line"/>
      <point x="253" y="1420" type="line"/>
    </contour>
    <contour>
      <point x="44" y="1330" type="line"/>
      <point x="556" y="1330" type="line"/>
      <point x="556" y="1420" type="line"/>
      <point x="44" y="1420" type="line"/>
    </contour>
  </outline>
</glyph>
<glyph name="U" format="2">
  <advance width="600"/>
  <unicode hex="0055"/>
  <anchor x="300" y="0" name="bottom"/>
  <anchor x="510" y="10" name="ogonek"/>
  <anchor x="300" y="1420" name="top"/>
  <anchor x="554" y="1420" name="topright"/>
  <outline>
    <contour>
      <point x="298" y="-20" type="curve" smooth="yes"/>
      <point x="438" y="-20"/>
      <point x="511" y="74"/>
      <point x="511" y="254" type="curve" smooth="yes"/>
      <point x="511" y="1420" type="line"/>
      <point x="417" y="1420" type="line"/>
      <point x="417" y="254" type="line" smooth="yes"/>
      <point x="417" y="133"/>
      <point x="377" y="70"/>
      <point x="300" y="70" type="curve" smooth="yes"/>
      <point x="223" y="70"/>
      <point x="183" y="133"/>
      <point x="183" y="254" type="curve" smooth="yes"/>
      <point x="183" y="1420" type="line"/>
      <point x="89" y="1420" type="line"/>
      <point x="89" y="254" type="line" smooth="yes"/>
      <point x="89" y="74"/>
      <point x="161" y="-20"/>
    </contour>
  </outline>
</glyph>
<glyph name="V" format="2">
  <advance width="600"/>
  <unicode hex="0056"/>
  <anchor x="300" y="0" name="bottom"/>
  <anchor x="300" y="1420" name="top"/>
  <outline>
    <contour>
      <point x="224" y="0" type="line"/>
      <point x="376" y="0" type="line"/>
      <point x="580" y="1420" type="line"/>
      <point x="495" y="1420" type="line"/>
      <point x="303" y="97" type="line"/>
      <point x="297" y="97" type="line"/>
      <point x="105" y="1420" type="line"/>
      <point x="20" y="1420" type="line"/>
    </contour>
  </outline>
</glyph>
<glyph name="W" format="2">
  <advance width="600"/>
  <unicode hex="0057"/>
  <anchor x="300" y="0" name="bottom"/>
  <anchor x="300" y="1420" name="top"/>
  <outline>
    <contour>
      <point x="83" y="0" type="line"/>
      <point x="224" y="0" type="line"/>
      <point x="292" y="970" type="line"/>
      <point x="324" y="970" type="line"/>
      <point x="366" y="1060" type="line"/>
      <point x="235" y="1060" type="line"/>
      <point x="163" y="90" type="line"/>
      <point x="142" y="90" type="line"/>
      <point x="93" y="1420" type="line"/>
      <point x="10" y="1420" type="line"/>
    </contour>
    <contour>
      <point x="376" y="0" type="line"/>
      <point x="517" y="0" type="line"/>
      <point x="590" y="1420" type="line"/>
      <point x="507" y="1420" type="line"/>
      <point x="458" y="90" type="line"/>
      <point x="437" y="90" type="line"/>
      <point x="366" y="1060" type="line"/>
      <point x="235" y="1060" type="line"/>
      <point x="276" y="970" type="line"/>
      <point x="308" y="970" type="line"/>
    </contour>
  </outline>
</glyph>
<glyph name="X" format="2">
  <advance width="600"/>
  <unicode hex="0058"/>
  <anchor x="300" y="0" name="bottom"/>
  <anchor x="300" y="1420" name="top"/>
  <outline>
    <contour>
      <point x="481" y="0" type="line"/>
      <point x="571" y="0" type="line"/>
      <point x="332" y="720" type="line"/>
      <point x="314" y="778" type="line"/>
      <point x="119" y="1420" type="line"/>
      <point x="29" y="1420" type="line"/>
      <point x="275" y="662" type="line"/>
      <point x="282" y="640" type="line"/>
    </contour>
    <contour>
      <point x="29" y="0" type="line"/>
      <point x="119" y="0" type="line"/>
      <point x="316" y="634" type="line"/>
      <point x="325" y="662" type="line"/>
      <point x="571" y="1420" type="line"/>
      <point x="481" y="1420" type="line"/>
      <point x="285" y="779" type="line"/>
      <point x="267" y="719" type="line"/>
    </contour>
  </outline>
</glyph>
<glyph name="Y" format="2">
  <advance width="600"/>
  <unicode hex="0059"/>
  <anchor x="300" y="0" name="bottom"/>
  <anchor x="300" y="1420" name="top"/>
  <anchor x="-23" y="1420" name="topleft"/>
  <outline>
    <contour>
      <point x="276" y="464" type="line"/>
      <point x="324" y="464" type="line"/>
      <point x="590" y="1420" type="line"/>
      <point x="495" y="1420" type="line"/>
      <point x="303" y="670" type="line"/>
      <point x="297" y="670" type="line"/>
      <point x="105" y="1420" type="line"/>
      <point x="10" y="1420" type="line"/>
    </contour>
    <contour>
      <point x="253" y="0" type="line"/>
      <point x="347" y="0" type="line"/>
      <point x="347" y="590" type="line"/>
      <point x="253" y="590" type="line"/>
    </contour>
  </outline>
</glyph>
<glyph name="Z" format="2">
  <advance width="600"/>
  <unicode hex="005A"/>
  <anchor x="300" y="0" name="bottom"/>
  <anchor x="300" y="710" name="center"/>
  <anchor x="300" y="1420" name="top"/>
  <outline>
    <contour>
      <point x="162" y="38" type="line"/>
      <point x="511" y="1330" type="line"/>
      <point x="437" y="1382" type="line"/>
      <point x="88" y="90" type="line"/>
    </contour>
    <contour>
      <point x="88" y="0" type="line"/>
      <point x="520" y="0" type="line"/>
      <point x="520" y="90" type="line"/>
      <point x="88" y="90" type="line"/>
    </contour>
    <contour>
      <point x="88" y="1330" type="line"/>
      <point x="511" y="1330" type="line"/>
      <point x="511" y="1420" type="line"/>
      <point x="88" y="1420" type="line"/>
    </contour>
  </outline>
</glyph>
<glyph name="bracketleft" format="2">
  <advance width="600"/>
  <unicode hex="005B"/>
  <outline>
    <contour>
      <point x="192" y="-214" type="line"/>
      <point x="286" y="-214" type="line"/>
      <point x="286" y="1634" type="line"/>
      <point x="192" y="1634" type="line"/>
    </contour>
    <contour>
      <point x="266" y="-214" type="line"/>
      <point x="510" y="-214" type="line"/>
      <point x="510" y="-124" type="line"/>
      <point x="266" y="-124" type="line"/>
    </contour>
    <contour>
      <point x="266" y="1544" type="line"/>
      <point x="510" y="1544" type="line"/>
      <point x="510" y="1634" type="line"/>
      <point x="266" y="1634" type="line"/>
    </contour>
  </outline>
</glyph>
<glyph name="backslash" format="2">
  <advance width="600"/>
  <unicode hex="005C"/>
  <outline>
    <contour>
      <point x="453" y="-190" type="line"/>
      <point x="544" y="-190" type="line"/>
      <point x="107" y="1610" type="line"/>
      <point x="16" y="1610" type="line"/>
    </contour>
  </outline>
</glyph>
<glyph name="bracketright" format="2">
  <advance width="600"/>
  <unicode hex="005D"/>
  <outline>
    <contour>
      <point x="314" y="-214" type="line"/>
      <point x="408" y="-214" type="line"/>
      <point x="408" y="1634" type="line"/>
      <point x="314" y="1634" type="line"/>
    </contour>
    <contour>
      <point x="90" y="-214" type="line"/>
      <point x="334" y="-214" type="line"/>
      <point x="334" y="-124" type="line"/>
      <point x="90" y="-124" type="line"/>
    </contour>
    <contour>
      <point x="90" y="1544" type="line"/>
      <point x="334" y="1544" type="line"/>
      <point x="334" y="1634" type="line"/>
      <point x="90" y="1634" type="line"/>
    </contour>
  </outline>
</glyph>
<glyph name="asciicircum" format="2">
  <advance width="600"/>
  <unicode hex="005E"/>
  <outline>
    <contour>
      <point x="100" y="820" type="line"/>
      <point x="194" y="820" type="line"/>
      <point x="297" y="1340" type="line"/>
      <point x="303" y="1340" type="line"/>
      <point x="406" y="820" type="line"/>
      <point x="500" y="820" type="line"/>
      <point x="360" y="1420" type="line"/>
      <point x="240" y="1420" type="line"/>
    </contour>
  </outline>
</glyph>
<glyph name="grave" format="2">
  <advance width="600"/>
  <unicode hex="0060"/>
  <outline>
    <contour>
      <point x="410" y="1068" type="line"/>
      <point x="506" y="1068" type="line"/>
      <point x="179" y="1628" type="line"/>
      <point x="75" y="1628" type="line"/>
    </contour>
  </outline>
</glyph>
<glyph name="a" format="2">
  <advance width="600"/>
  <unicode hex="0061"/>
  <anchor x="300" y="0" name="bottom"/>
  <anchor x="557" y="10" name="ogonek"/>
  <anchor x="290" y="1060" name="top"/>
  <outline>
    <contour>
      <point x="423" y="-10" type="line"/>
      <point x="581" y="0" type="line"/>
      <point x="581" y="63" type="line"/>
      <point x="487" y="76" type="line"/>
      <point x="487" y="597" type="line" smooth="yes"/>
      <point x="487" y="926"/>
      <point x="388" y="1061"/>
      <point x="178" y="1067" type="curve" smooth="yes"/>
      <point x="105" y="1070" type="line"/>
      <point x="94" y="978" type="line"/>
      <point x="181" y="975" type="line" smooth="yes"/>
      <point x="314" y="972"/>
      <point x="393" y="885"/>
      <point x="393" y="610" type="curve" smooth="yes"/>
      <point x="393" y="383" type="line"/>
      <point x="400" y="218" type="line"/>
    </contour>
    <contour>
      <point x="241" y="-20" type="curve" smooth="yes"/>
      <point x="337" y="-20"/>
      <point x="384" y="55"/>
      <point x="399" y="183" type="curve"/>
      <point x="389" y="153" type="line"/>
      <point x="464" y="153" type="line"/>
      <point x="393" y="496" type="line"/>
      <point x="393" y="270" type="line"/>
      <point x="393" y="146"/>
      <point x="343" y="72"/>
      <point x="257" y="72" type="curve" smooth="yes"/>
      <point x="181" y="72"/>
      <point x="135" y="142"/>
      <point x="135" y="261" type="curve" smooth="yes"/>
      <point x="135" y="411"/>
      <point x="195" y="499"/>
      <point x="296" y="499" type="curve" smooth="yes"/>
      <point x="349" y="499"/>
      <point x="415" y="499"/>
      <point x="452" y="466" type="curve"/>
      <point x="463" y="547" type="line"/>
      <point x="431" y="575"/>
      <point x="364" y="586"/>
      <point x="298" y="586" type="curve" smooth="yes"/>
      <point x="134" y="586"/>
      <point x="37" y="463"/>
      <point x="37" y="254" type="curve" smooth="yes"/>
      <point x="37" y="82"/>
      <point x="113" y="-20"/>
    </contour>
  </outline>
</glyph>
<glyph name="b" format="2">
  <advance width="600"/>
  <unicode hex="0062"/>
  <anchor x="318" y="0" name="bottom"/>
  <anchor x="157" y="1540" name="top"/>
  <outline>
    <contour>
      <point x="220" y="-20" type="curve" smooth="yes"/>
      <point x="416" y="-20"/>
      <point x="528" y="207"/>
      <point x="528" y="600" type="curve" smooth="yes"/>
      <point x="528" y="905"/>
      <point x="451" y="1080"/>
      <point x="315" y="1080" type="curve" smooth="yes"/>
      <point x="256" y="1080"/>
      <point x="218" y="1049"/>
      <point x="196" y="989" type="curve"/>
      <point x="167" y="989" type="line"/>
      <point x="194" y="717" type="line"/>
      <point x="194" y="895"/>
      <point x="230" y="988"/>
      <point x="300" y="988" type="curve" smooth="yes"/>
      <point x="384" y="988"/>
      <point x="432" y="848"/>
      <point x="432" y="600" type="curve" smooth="yes"/>
      <point x="432" y="264"/>
      <point x="362" y="72"/>
      <point x="239" y="72" type="curve" smooth="yes"/>
      <point x="201" y="72"/>
      <point x="166" y="77"/>
      <point x="132" y="86" type="curve"/>
      <point x="100" y="0" type="line"/>
      <point x="145" y="-13"/>
      <point x="182" y="-20"/>
    </contour>
    <contour>
      <point x="100" y="0" type="line"/>
      <point x="194" y="18" type="line"/>
      <point x="194" y="1500" type="line"/>
      <point x="100" y="1500" type="line"/>
    </contour>
  </outline>
</glyph>
<glyph name="c" format="2">
  <advance width="600"/>
  <unicode hex="0063"/>
  <anchor x="323" y="0" name="bottom"/>
  <anchor x="323" y="1060" name="top"/>
  <outline>
    <contour>
      <point x="357" y="-20" type="curve" smooth="yes"/>
      <point x="412" y="-20"/>
      <point x="465" y="-14"/>
      <point x="514" y="5" type="curve"/>
      <point x="506" y="96" type="line"/>
      <point x="458" y="80"/>
      <point x="410" y="72"/>
      <point x="363" y="72" type="curve" smooth="yes"/>
      <point x="242" y="72"/>
      <point x="177" y="234"/>
      <point x="177" y="542" type="curve" smooth="yes"/>
      <point x="177" y="828"/>
      <point x="241" y="988"/>
      <point x="350" y="988" type="curve" smooth="yes"/>
      <point x="397" y="988"/>
      <point x="430" y="957"/>
      <point x="453" y="888" type="curve"/>
      <point x="534" y="921" type="line"/>
      <point x="510" y="1030"/>
      <point x="453" y="1080"/>
      <point x="354" y="1080" type="curve" smooth="yes"/>
      <point x="179" y="1080"/>
      <point x="81" y="877"/>
      <point x="81" y="532" type="curve" smooth="yes"/>
      <point x="81" y="170"/>
      <point x="178" y="-20"/>
    </contour>
  </outline>
</glyph>
<glyph name="d" format="2">
  <advance width="600"/>
  <unicode hex="0064"/>
  <anchor x="273" y="0" name="bottom"/>
  <anchor x="300" y="530" name="center"/>
  <anchor x="454" y="1500" name="top"/>
  <anchor x="550" y="1060" name="topright"/>
  <outline>
    <contour>
      <point x="269" y="-20" type="curve" smooth="yes"/>
      <point x="342" y="-20"/>
      <point x="373" y="37"/>
      <point x="393" y="130" type="curve"/>
      <point x="443" y="130" type="line"/>
      <point x="405" y="393" type="line"/>
      <point x="405" y="182"/>
      <point x="364" y="72"/>
      <point x="284" y="72" type="curve" smooth="yes"/>
      <point x="206" y="72"/>
      <point x="166" y="226"/>
      <point x="166" y="520" type="curve" smooth="yes"/>
      <point x="166" y="828"/>
      <point x="206" y="988"/>
      <point x="284" y="988" type="curve" smooth="yes"/>
      <point x="364" y="988"/>
      <point x="405" y="901"/>
      <point x="405" y="676" type="curve"/>
      <point x="434" y="963" type="line"/>
      <point x="390" y="963" type="line"/>
      <point x="368" y="1043"/>
      <point x="335" y="1080"/>
      <point x="271" y="1080" type="curve" smooth="yes"/>
      <point x="138" y="1080"/>
      <point x="70" y="887"/>
      <point x="70" y="520" type="curve" smooth="yes"/>
      <point x="70" y="165"/>
      <point x="138" y="-20"/>
    </contour>
    <contour>
      <point x="413" y="-10" type="line"/>
      <point x="498" y="-5" type="line"/>
      <point x="498" y="1500" type="line"/>
      <point x="404" y="1500" type="line"/>
      <point x="404" y="268" type="line"/>
    </contour>
  </outline>
</glyph>
<glyph name="e" format="2">
  <advance width="600"/>
  <unicode hex="0065"/>
  <anchor x="309" y="0" name="bottom"/>
  <anchor x="498" y="10" name="ogonek"/>
  <anchor x="300" y="1060" name="top"/>
  <outline>
    <contour>
      <point x="392" y="-20" type="curve" smooth="yes"/>
      <point x="419" y="-20"/>
      <point x="450" y="-17"/>
      <point x="483" y="-12" type="curve"/>
      <point x="474" y="80" type="line"/>
      <point x="450" y="75"/>
      <point x="426" y="72"/>
      <point x="403" y="72" type="curve" smooth="yes"/>
      <point x="263" y="72"/>
      <point x="182" y="245"/>
      <point x="182" y="542" type="curve" smooth="yes"/>
      <point x="182" y="861"/>
      <point x="216" y="988"/>
      <point x="303" y="988" type="curve" smooth="yes"/>
      <point x="380" y="988"/>
      <point x="410" y="877"/>
      <point x="410" y="598" type="curve"/>
      <point x="141" y="598" type="line"/>
      <point x="141" y="508" type="line"/>
      <point x="503" y="508" type="line"/>
      <point x="505" y="529"/>
      <point x="506" y="562"/>
      <point x="506" y="596" type="curve" smooth="yes"/>
      <point x="506" y="942"/>
      <point x="448" y="1080"/>
      <point x="302" y="1080" type="curve" smooth="yes"/>
      <point x="148" y="1080"/>
      <point x="86" y="927"/>
      <point x="86" y="544" type="curve" smooth="yes"/>
      <point x="86" y="186"/>
      <point x="197" y="-20"/>
    </contour>
  </outline>
</glyph>
<glyph name="f" format="2">
  <advance width="600"/>
  <unicode hex="0066"/>
  <anchor x="253" y="0" name="bottom"/>
  <anchor x="372" y="1500" name="top"/>
  <outline>
    <contour>
      <point x="207" y="0" type="line"/>
      <point x="301" y="0" type="line"/>
      <point x="301" y="1192" type="line" smooth="yes"/>
      <point x="301" y="1350"/>
      <point x="352" y="1428"/>
      <point x="453" y="1428" type="curve" smooth="yes"/>
      <point x="482" y="1428"/>
      <point x="511" y="1425"/>
      <point x="551" y="1419" type="curve"/>
      <point x="562" y="1505" type="line"/>
      <point x="524" y="1516"/>
      <point x="492" y="1520"/>
      <point x="457" y="1520" type="curve" smooth="yes"/>
      <point x="289" y="1520"/>
      <point x="207" y="1408"/>
      <point x="207" y="1182" type="curve" smooth="yes"/>
    </contour>
    <contour>
      <point x="54" y="688" type="line"/>
      <point x="523" y="688" type="line"/>
      <point x="523" y="778" type="line"/>
      <point x="54" y="778" type="line"/>
    </contour>
  </outline>
</glyph>
<glyph name="g" format="2">
  <advance width="600"/>
  <unicode hex="0067"/>
  <anchor x="273" y="-420" name="bottom"/>
  <anchor x="282" y="1060" name="top"/>
  <outline>
    <contour>
      <point x="109" y="-478" type="line"/>
      <point x="151" y="-473" type="line" smooth="yes"/>
      <point x="391" y="-444"/>
      <point x="498" y="-287"/>
      <point x="498" y="94" type="curve" smooth="yes"/>
      <point x="498" y="1060" type="line"/>
      <point x="428" y="1060" type="line"/>
      <point x="405" y="897" type="line"/>
      <point x="404" y="62" type="line" smooth="yes"/>
      <point x="404" y="-193"/>
      <point x="346" y="-359"/>
      <point x="160" y="-383" type="curve" smooth="yes"/>
      <point x="105" y="-390" type="line"/>
    </contour>
    <contour>
      <point x="269" y="-20" type="curve" smooth="yes"/>
      <point x="343" y="-20"/>
      <point x="374" y="41"/>
      <point x="394" y="140" type="curve"/>
      <point x="443" y="140" type="line"/>
      <point x="405" y="393" type="line"/>
      <point x="405" y="182"/>
      <point x="364" y="72"/>
      <point x="284" y="72" type="curve" smooth="yes"/>
      <point x="206" y="72"/>
      <point x="166" y="226"/>
      <point x="166" y="520" type="curve" smooth="yes"/>
      <point x="166" y="828"/>
      <point x="206" y="988"/>
      <point x="284" y="988" type="curve" smooth="yes"/>
      <point x="364" y="988"/>
      <point x="405" y="901"/>
      <point x="405" y="676" type="curve"/>
      <point x="434" y="963" type="line"/>
      <point x="407" y="963" type="line"/>
      <point x="384" y="1043"/>
      <point x="349" y="1080"/>
      <point x="281" y="1080" type="curve" smooth="yes"/>
      <point x="141" y="1080"/>
      <point x="70" y="887"/>
      <point x="70" y="520" type="curve" smooth="yes"/>
      <point x="70" y="165"/>
      <point x="138" y="-20"/>
    </contour>
  </outline>
</glyph>
<glyph name="h" format="2">
  <advance width="600"/>
  <unicode hex="0068"/>
  <anchor x="300" y="0" name="bottom"/>
  <anchor x="300" y="784" name="center"/>
  <anchor x="152" y="1500" name="top"/>
  <outline>
    <contour>
      <point x="404" y="0" type="line"/>
      <point x="498" y="0" type="line"/>
      <point x="498" y="842" type="line" smooth="yes"/>
      <point x="498" y="998"/>
      <point x="445" y="1080"/>
      <point x="342" y="1080" type="curve" smooth="yes"/>
      <point x="266" y="1080"/>
      <point x="222" y="1036"/>
      <point x="204" y="952" type="curve"/>
      <point x="157" y="952" type="line"/>
      <point x="196" y="721" type="line"/>
      <point x="196" y="912"/>
      <point x="227" y="988"/>
      <point x="307" y="988" type="curve" smooth="yes"/>
      <point x="371" y="988"/>
      <point x="404" y="939"/>
      <point x="404" y="846" type="curve" smooth="yes"/>
    </contour>
    <contour>
      <point x="102" y="0" type="line"/>
      <point x="196" y="0" type="line"/>
      <point x="196" y="1500" type="line"/>
      <point x="102" y="1500" type="line"/>
    </contour>
  </outline>
</glyph>
<glyph name="i" format="2">
  <advance width="600"/>
  <unicode hex="0069"/>
  <anchor x="352" y="0" name="bottom"/>
  <anchor x="346" y="1480" name="top"/>
  <outline>
    <contour>
      <point x="305" y="0" type="line"/>
      <point x="399" y="0" type="line"/>
      <point x="399" y="1012" type="line"/>
      <point x="305" y="1012" type="line"/>
    </contour>
    <contour>
      <point x="97" y="0" type="line"/>
      <point x="314" y="0" type="line"/>
      <point x="314" y="90" type="line"/>
      <point x="97" y="90" type="line"/>
    </contour>
    <contour>
      <point x="390" y="0" type="line"/>
      <point x="511" y="0" type="line"/>
      <point x="511" y="90" type="line"/>
      <point x="390" y="90" type="line"/>
    </contour>
    <contour>
      <point x="124" y="970" type="line"/>
      <point x="399" y="970" type="line"/>
      <point x="399" y="1060" type="line"/>
      <point x="124" y="1060" type="line"/>
    </contour>
    <contour>
      <point x="340" y="1338" type="curve" smooth="yes"/>
      <point x="391" y="1338"/>
      <point x="432" y="1379"/>
      <point x="432" y="1430" type="curve" smooth="yes"/>
      <point x="432" y="1480"/>
      <point x="391" y="1522"/>
      <point x="340" y="1522" type="curve" smooth="yes"/>
      <point x="289" y="1522"/>
      <point x="248" y="1480"/>
      <point x="248" y="1430" type="curve" smooth="yes"/>
      <point x="248" y="1379"/>
      <point x="289" y="1338"/>
    </contour>
  </outline>
</glyph>
<glyph name="j" format="2">
  <advance width="600"/>
  <unicode hex="006A"/>
  <anchor x="288" y="-480" name="bottom"/>
  <anchor x="398" y="1480" name="top"/>
  <outline>
    <contour>
      <point x="123" y="-480" type="line"/>
      <point x="174" y="-468" type="line" smooth="yes"/>
      <point x="370" y="-422"/>
      <point x="457" y="-338"/>
      <point x="457" y="-98" type="curve" smooth="yes"/>
      <point x="457" y="384" type="line"/>
      <point x="362" y="384" type="line"/>
      <point x="362" y="-130" type="line" smooth="yes"/>
      <point x="362" y="-289"/>
      <point x="296" y="-338"/>
      <point x="169" y="-376" type="curve" smooth="yes"/>
      <point x="109" y="-394" type="line"/>
    </contour>
    <contour>
      <point x="362" y="350" type="line"/>
      <point x="457" y="350" type="line"/>
      <point x="457" y="1060" type="line"/>
      <point x="362" y="1060" type="line"/>
    </contour>
    <contour>
      <point x="148" y="970" type="line"/>
      <point x="367" y="970" type="line"/>
      <point x="367" y="1060" type="line"/>
      <point x="148" y="1060" type="line"/>
    </contour>
    <contour>
      <point x="398" y="1338" type="curve" smooth="yes"/>
      <point x="449" y="1338"/>
      <point x="490" y="1379"/>
      <point x="490" y="1430" type="curve" smooth="yes"/>
      <point x="490" y="1480"/>
      <point x="449" y="1522"/>
      <point x="398" y="1522" type="curve" smooth="yes"/>
      <point x="347" y="1522"/>
      <point x="306" y="1480"/>
      <point x="306" y="1430" type="curve" smooth="yes"/>
      <point x="306" y="1379"/>
      <point x="347" y="1338"/>
    </contour>
  </outline>
</glyph>
<glyph name="k" format="2">
  <advance width="600"/>
  <unicode hex="006B"/>
  <anchor x="310" y="0" name="bottom"/>
  <anchor x="149" y="1500" name="top"/>
  <outline>
    <contour>
      <point x="140" y="432" type="line"/>
      <point x="218" y="432" type="line" smooth="yes"/>
      <point x="395" y="432"/>
      <point x="489" y="629"/>
      <point x="518" y="1060" type="curve"/>
      <point x="424" y="1060" type="line"/>
      <point x="400" y="665"/>
      <point x="341" y="522"/>
      <point x="202" y="522" type="curve" smooth="yes"/>
      <point x="140" y="522" type="line"/>
    </contour>
    <contour>
      <point x="102" y="0" type="line"/>
      <point x="196" y="0" type="line"/>
      <point x="196" y="1500" type="line"/>
      <point x="102" y="1500" type="line"/>
    </contour>
    <contour>
      <point x="456" y="0" type="line"/>
      <point x="550" y="0" type="line"/>
      <point x="384" y="598" type="line"/>
      <point x="308" y="546" type="line"/>
    </contour>
  </outline>
</glyph>
<glyph name="l" format="2">
  <advance width="600"/>
  <unicode hex="006C"/>
  <anchor x="337" y="0" name="bottom"/>
  <anchor x="262" y="784" name="center"/>
  <anchor x="260" y="1500" name="top"/>
  <anchor x="474" y="1500" name="topright"/>
  <outline>
    <contour>
      <point x="393" y="-20" type="curve" smooth="yes"/>
      <point x="435" y="-20"/>
      <point x="473" y="-15"/>
      <point x="517" y="2" type="curve"/>
      <point x="509" y="91" type="line"/>
      <point x="471" y="79"/>
      <point x="441" y="72"/>
      <point x="412" y="72" type="curve" smooth="yes"/>
      <point x="344" y="72"/>
      <point x="308" y="133"/>
      <point x="308" y="249" type="curve" smooth="yes"/>
      <point x="308" y="1500" type="line"/>
      <point x="212" y="1500" type="line"/>
      <point x="212" y="249" type="line" smooth="yes"/>
      <point x="212" y="72"/>
      <point x="274" y="-20"/>
    </contour>
    <contour>
      <point x="69" y="1410" type="line"/>
      <point x="220" y="1410" type="line"/>
      <point x="220" y="1500" type="line"/>
      <point x="69" y="1500" type="line"/>
    </contour>
  </outline>
</glyph>
<glyph name="m" format="2">
  <advance width="600"/>
  <unicode hex="006D"/>
  <anchor x="300" y="0" name="bottom"/>
  <anchor x="300" y="1060" name="top"/>
  <outline>
    <contour>
      <point x="440" y="0" type="line"/>
      <point x="534" y="0" type="line"/>
      <point x="534" y="911" type="line" smooth="yes"/>
      <point x="534" y="1022"/>
      <point x="502" y="1080"/>
      <point x="442" y="1080" type="curve" smooth="yes"/>
      <point x="388" y="1080"/>
      <point x="355" y="1045"/>
      <point x="347" y="979" type="curve"/>
      <point x="297" y="979" type="line"/>
      <point x="336" y="857" type="line"/>
      <point x="336" y="947"/>
      <point x="353" y="988"/>
      <point x="390" y="988" type="curve" smooth="yes"/>
      <point x="424" y="988"/>
      <point x="440" y="958"/>
      <point x="440" y="891" type="curve" smooth="yes"/>
    </contour>
    <contour>
      <point x="66" y="0" type="line"/>
      <point x="160" y="0" type="line"/>
      <point x="160" y="917" type="line"/>
      <point x="136" y="1060" type="line"/>
      <point x="66" y="1060" type="line"/>
    </contour>
    <contour>
      <point x="264" y="0" type="line"/>
      <point x="336" y="0" type="line"/>
      <point x="336" y="916" type="line"/>
      <point x="336" y="931" type="line" smooth="yes"/>
      <point x="336" y="1029"/>
      <point x="305" y="1080"/>
      <point x="245" y="1080" type="curve" smooth="yes"/>
      <point x="199" y="1080"/>
      <point x="171" y="1045"/>
      <point x="164" y="979" type="curve"/>
      <point x="130" y="979" type="line"/>
      <point x="160" y="857" type="line"/>
      <point x="160" y="947"/>
      <point x="178" y="988"/>
      <point x="218" y="988" type="curve" smooth="yes"/>
      <point x="249" y="988"/>
      <point x="264" y="964"/>
      <point x="264" y="911" type="curve" smooth="yes"/>
    </contour>
  </outline>
</glyph>
<glyph name="o" format="2">
  <advance width="600"/>
  <unicode hex="006F"/>
  <anchor x="300" y="0" name="bottom"/>
  <anchor x="300" y="530" name="center"/>
  <anchor x="300" y="10" name="ogonek"/>
  <anchor x="300" y="1060" name="top"/>
  <anchor x="485" y="1060" name="topright"/>
  <outline>
    <contour>
      <point x="300" y="-20" type="curve" smooth="yes"/>
      <point x="458" y="-20"/>
      <point x="530" y="153"/>
      <point x="530" y="530" type="curve" smooth="yes"/>
      <point x="530" y="907"/>
      <point x="458" y="1080"/>
      <point x="300" y="1080" type="curve" smooth="yes"/>
      <point x="142" y="1080"/>
      <point x="70" y="907"/>
      <point x="70" y="530" type="curve" smooth="yes"/>
      <point x="70" y="153"/>
      <point x="142" y="-20"/>
    </contour>
    <contour>
      <point x="300" y="72" type="curve" smooth="yes"/>
      <point x="208" y="72"/>
      <point x="166" y="216"/>
      <point x="166" y="530" type="curve" smooth="yes"/>
      <point x="166" y="844"/>
      <point x="208" y="988"/>
      <point x="300" y="988" type="curve" smooth="yes"/>
      <point x="392" y="988"/>
      <point x="434" y="844"/>
      <point x="434" y="530" type="curve" smooth="yes"/>
      <point x="434" y="216"/>
      <point x="392" y="72"/>
    </contour>
  </outline>
</glyph>
<glyph name="p" format="2">
  <advance width="600"/>
  <unicode hex="0070"/>
  <anchor x="322" y="-460" name="bottom"/>
  <anchor x="322" y="1060" name="top"/>
  <outline>
    <contour>
      <point x="331" y="-20" type="curve" smooth="yes"/>
      <point x="462" y="-20"/>
      <point x="530" y="165"/>
      <point x="530" y="520" type="curve" smooth="yes"/>
      <point x="530" y="887"/>
      <point x="462" y="1080"/>
      <point x="329" y="1080" type="curve" smooth="yes"/>
      <point x="259" y="1080"/>
      <point x="224" y="1037"/>
      <point x="200" y="943" type="curve"/>
      <point x="167" y="943" type="line"/>
      <point x="196" y="656" type="line"/>
      <point x="196" y="865"/>
      <point x="240" y="988"/>
      <point x="316" y="988" type="curve" smooth="yes"/>
      <point x="393" y="988"/>
      <point x="434" y="828"/>
      <point x="434" y="520" type="curve" smooth="yes"/>
      <point x="434" y="226"/>
      <point x="393" y="72"/>
      <point x="316" y="72" type="curve" smooth="yes"/>
      <point x="237" y="72"/>
      <point x="196" y="182"/>
      <point x="196" y="393" type="curve"/>
      <point x="164" y="119" type="line"/>
      <point x="205" y="119" type="line"/>
      <point x="217" y="30"/>
      <point x="259" y="-20"/>
    </contour>
    <contour>
      <point x="102" y="-460" type="line"/>
      <point x="196" y="-460" type="line"/>
      <point x="196" y="927" type="line"/>
      <point x="167" y="1060" type="line"/>
      <point x="102" y="1060" type="line"/>
    </contour>
  </outline>
</glyph>
<glyph name="q" format="2">
  <advance width="600"/>
  <unicode hex="0071"/>
  <anchor x="279" y="-460" name="bottom"/>
  <anchor x="279" y="1060" name="top"/>
  <outline>
    <contour>
      <point x="269" y="-20" type="curve" smooth="yes"/>
      <point x="341" y="-20"/>
      <point x="384" y="30"/>
      <point x="395" y="119" type="curve"/>
      <point x="436" y="119" type="line"/>
      <point x="404" y="393" type="line"/>
      <point x="404" y="182"/>
      <point x="363" y="72"/>
      <point x="284" y="72" type="curve" smooth="yes"/>
      <point x="206" y="72"/>
      <point x="166" y="226"/>
      <point x="166" y="520" type="curve" smooth="yes"/>
      <point x="166" y="828"/>
      <point x="206" y="988"/>
      <point x="284" y="988" type="curve" smooth="yes"/>
      <point x="359" y="988"/>
      <point x="404" y="865"/>
      <point x="404" y="656" type="curve"/>
      <point x="433" y="943" type="line"/>
      <point x="400" y="943" type="line"/>
      <point x="376" y="1037"/>
      <point x="340" y="1080"/>
      <point x="271" y="1080" type="curve" smooth="yes"/>
      <point x="138" y="1080"/>
      <point x="70" y="887"/>
      <point x="70" y="520" type="curve" smooth="yes"/>
      <point x="70" y="165"/>
      <point x="138" y="-20"/>
    </contour>
    <contour>
      <point x="404" y="-460" type="line"/>
      <point x="498" y="-460" type="line"/>
      <point x="498" y="1060" type="line"/>
      <point x="433" y="1060" type="line"/>
      <point x="404" y="927" type="line"/>
    </contour>
  </outline>
</glyph>
<glyph name="r" format="2">
  <advance width="600"/>
  <unicode hex="0072"/>
  <anchor x="211" y="0" name="bottom"/>
  <anchor x="300" y="1060" name="top"/>
  <outline>
    <contour>
      <point x="255" y="557" type="line"/>
      <point x="255" y="865"/>
      <point x="290" y="988"/>
      <point x="378" y="988" type="curve" smooth="yes"/>
      <point x="438" y="988"/>
      <point x="464" y="897"/>
      <point x="464" y="682" type="curve"/>
      <point x="560" y="682" type="line"/>
      <point x="560" y="962"/>
      <point x="508" y="1080"/>
      <point x="388" y="1080" type="curve" smooth="yes"/>
      <point x="315" y="1080"/>
      <point x="281" y="1028"/>
      <point x="257" y="899" type="curve"/>
      <point x="218" y="899" type="line"/>
    </contour>
    <contour>
      <point x="46" y="0" type="line"/>
      <point x="378" y="0" type="line"/>
      <point x="378" y="90" type="line"/>
      <point x="46" y="90" type="line"/>
    </contour>
    <contour>
      <point x="161" y="0" type="line"/>
      <point x="255" y="0" type="line"/>
      <point x="255" y="857" type="line"/>
      <point x="228" y="1060" type="line"/>
      <point x="161" y="1060" type="line"/>
    </contour>
    <contour>
      <point x="67" y="970" type="line"/>
      <point x="218" y="970" type="line"/>
      <point x="214" y="1060" type="line"/>
      <point x="67" y="1060" type="line"/>
    </contour>
  </outline>
</glyph>
<glyph name="s" format="2">
  <advance width="600"/>
  <unicode hex="0073"/>
  <anchor x="296" y="0" name="bottom"/>
  <anchor x="312" y="1060" name="top"/>
  <outline>
    <contour>
      <point x="266" y="-20" type="curve" smooth="yes"/>
      <point x="416" y="-20"/>
      <point x="480" y="46"/>
      <point x="480" y="205" type="curve" smooth="yes"/>
      <point x="480" y="314"/>
      <point x="451" y="396"/>
      <point x="353" y="552" type="curve" smooth="yes"/>
      <point x="307" y="625" type="line" smooth="yes"/>
      <point x="250" y="715"/>
      <point x="223" y="764"/>
      <point x="223" y="851" type="curve" smooth="yes"/>
      <point x="223" y="947"/>
      <point x="262" y="988"/>
      <point x="354" y="988" type="curve" smooth="yes"/>
      <point x="384" y="988"/>
      <point x="416" y="984"/>
      <point x="461" y="974" type="curve"/>
      <point x="468" y="1065" type="line"/>
      <point x="428" y="1076"/>
      <point x="396" y="1080"/>
      <point x="357" y="1080" type="curve" smooth="yes"/>
      <point x="195" y="1080"/>
      <point x="127" y="1012"/>
      <point x="127" y="852" type="curve" smooth="yes"/>
      <point x="127" y="748"/>
      <point x="161" y="674"/>
      <point x="256" y="519" type="curve" smooth="yes"/>
      <point x="306" y="437" type="line" smooth="yes"/>
      <point x="362" y="345"/>
      <point x="384" y="292"/>
      <point x="384" y="205" type="curve" smooth="yes"/>
      <point x="384" y="112"/>
      <point x="348" y="72"/>
      <point x="266" y="72" type="curve" smooth="yes"/>
      <point x="228" y="72"/>
      <point x="188" y="80"/>
      <point x="128" y="100" type="curve"/>
      <point x="120" y="5" type="line"/>
      <point x="159" y="-13"/>
      <point x="204" y="-20"/>
    </contour>
  </outline>
</glyph>
<glyph name="t" format="2">
  <advance width="600"/>
  <unicode hex="0074"/>
  <anchor x="331" y="0" name="bottom"/>
  <anchor x="223" y="570" name="center"/>
  <anchor x="405" y="1180" name="top"/>
  <anchor x="533" y="1060" name="topright"/>
  <outline>
    <contour>
      <point x="393" y="-20" type="curve" smooth="yes"/>
      <point x="436" y="-20"/>
      <point x="475" y="-13"/>
      <point x="521" y="4" type="curve"/>
      <point x="513" y="93" type="line"/>
      <point x="471" y="79"/>
      <point x="437" y="72"/>
      <point x="403" y="72" type="curve" smooth="yes"/>
      <point x="316" y="72"/>
      <point x="276" y="137"/>
      <point x="276" y="269" type="curve" smooth="yes"/>
      <point x="276" y="388" type="line"/>
      <point x="182" y="388" type="line"/>
      <point x="182" y="269" type="line" smooth="yes"/>
      <point x="182" y="77"/>
      <point x="248" y="-20"/>
    </contour>
    <contour>
      <point x="182" y="359" type="line"/>
      <point x="276" y="359" type="line"/>
      <point x="276" y="1380" type="line"/>
      <point x="182" y="1380" type="line"/>
    </contour>
    <contour>
      <point x="49" y="970" type="line"/>
      <point x="502" y="970" type="line"/>
      <point x="502" y="1060" type="line"/>
      <point x="49" y="1060" type="line"/>
    </contour>
  </outline>
</glyph>
<glyph name="u" format="2">
  <advance width="600"/>
  <unicode hex="0075"/>
  <anchor x="281" y="0" name="bottom"/>
  <anchor x="549" y="10" name="ogonek"/>
  <anchor x="290" y="1060" name="top"/>
  <anchor x="548" y="1060" name="topright"/>
  <outline>
    <contour>
      <point x="254" y="-20" type="curve" smooth="yes"/>
      <point x="315" y="-20"/>
      <point x="355" y="29"/>
      <point x="370" y="123" type="curve"/>
      <point x="421" y="123" type="line"/>
      <point x="375" y="409" type="line"/>
      <point x="375" y="188"/>
      <point x="340" y="72"/>
      <point x="274" y="72" type="curve" smooth="yes"/>
      <point x="212" y="72"/>
      <point x="180" y="136"/>
      <point x="180" y="259" type="curve" smooth="yes"/>
      <point x="180" y="1060" type="line"/>
      <point x="86" y="1060" type="line"/>
      <point x="86" y="259" type="line" smooth="yes"/>
      <point x="86" y="76"/>
      <point x="144" y="-20"/>
    </contour>
    <contour>
      <point x="408" y="-10" type="line"/>
      <point x="560" y="0" type="line"/>
      <point x="560" y="63" type="line"/>
      <point x="469" y="73" type="line"/>
      <point x="469" y="349" type="line"/>
      <point x="375" y="349" type="line"/>
      <point x="377" y="163" type="line"/>
    </contour>
    <contour>
      <point x="375" y="219" type="line"/>
      <point x="469" y="179" type="line"/>
      <point x="469" y="1060" type="line"/>
      <point x="375" y="1060" type="line"/>
    </contour>
  </outline>
</glyph>
<glyph name="v" format="2">
  <advance width="600"/>
  <unicode hex="0076"/>
  <anchor x="300" y="0" name="bottom"/>
  <anchor x="300" y="1060" name="top"/>
  <outline>
    <contour>
      <point x="227" y="0" type="line"/>
      <point x="373" y="0" type="line"/>
      <point x="546" y="1060" type="line"/>
      <point x="451" y="1060" type="line"/>
      <point x="304" y="80" type="line"/>
      <point x="298" y="80" type="line"/>
      <point x="149" y="1060" type="line"/>
      <point x="54" y="1060" type="line"/>
    </contour>
  </outline>
</glyph>
<glyph name="w" format="2">
  <advance width="600"/>
  <unicode hex="0077"/>
  <anchor x="295" y="0" name="bottom"/>
  <anchor x="295" y="1060" name="top"/>
  <outline>
    <contour>
      <point x="359" y="0" type="line"/>
      <point x="491" y="0" type="line"/>
      <point x="576" y="1060" type="line"/>
      <point x="489" y="1060" type="line"/>
      <point x="423" y="80" type="line"/>
      <point x="415" y="80" type="line"/>
      <point x="352" y="1060" type="line"/>
      <point x="238" y="1060" type="line"/>
      <point x="290" y="980" type="line"/>
      <point x="298" y="980" type="line"/>
    </contour>
    <contour>
      <point x="94" y="0" type="line"/>
      <point x="232" y="0" type="line"/>
      <point x="292" y="980" type="line"/>
      <point x="300" y="980" type="line"/>
      <point x="352" y="1060" type="line"/>
      <point x="238" y="1060" type="line"/>
      <point x="175" y="80" type="line"/>
      <point x="167" y="80" type="line"/>
      <point x="109" y="1060" type="line"/>
      <point x="24" y="1060" type="line"/>
    </contour>
  </outline>
</glyph>
<glyph name="x" format="2">
  <advance width="600"/>
  <unicode hex="0078"/>
  <anchor x="300" y="0" name="bottom"/>
  <anchor x="300" y="1060" name="top"/>
  <outline>
    <contour>
      <point x="60" y="0" type="line"/>
      <point x="156" y="0" type="line"/>
      <point x="312" y="449" type="line"/>
      <point x="325" y="487" type="line"/>
      <point x="540" y="1060" type="line"/>
      <point x="444" y="1060" type="line"/>
      <point x="290" y="615" type="line"/>
      <point x="273" y="565" type="line"/>
    </contour>
    <contour>
      <point x="444" y="0" type="line"/>
      <point x="540" y="0" type="line"/>
      <point x="329" y="570" type="line"/>
      <point x="313" y="614" type="line"/>
      <point x="156" y="1060" type="line"/>
      <point x="60" y="1060" type="line"/>
      <point x="273" y="492" type="line"/>
      <point x="285" y="457" type="line"/>
    </contour>
  </outline>
</glyph>
<glyph name="y" format="2">
  <advance width="600"/>
  <unicode hex="0079"/>
  <anchor x="478" y="0" name="bottom"/>
  <anchor x="308" y="1060" name="top"/>
  <outline>
    <contour>
      <point x="36" y="-480" type="line"/>
      <point x="98" y="-466" type="line" smooth="yes"/>
      <point x="249" y="-432"/>
      <point x="321" y="-345"/>
      <point x="352" y="-161" type="curve" smooth="yes"/>
      <point x="548" y="1060" type="line"/>
      <point x="452" y="1060" type="line"/>
      <point x="276" y="-111" type="line" smooth="yes"/>
      <point x="251" y="-270"/>
      <point x="197" y="-346"/>
      <point x="86" y="-375" type="curve" smooth="yes"/>
      <point x="33" y="-389" type="line"/>
    </contour>
    <contour>
      <point x="238" y="0" type="line"/>
      <point x="325" y="0" type="line"/>
      <point x="327" y="90" type="line"/>
      <point x="304" y="90" type="line"/>
      <point x="132" y="1060" type="line"/>
      <point x="36" y="1060" type="line"/>
    </contour>
  </outline>
</glyph>
<glyph name="z" format="2">
  <advance width="600"/>
  <unicode hex="007A"/>
  <anchor x="300" y="0" name="bottom"/>
  <anchor x="300" y="530" name="center"/>
  <anchor x="300" y="1060" name="top"/>
  <outline>
    <contour>
      <point x="188" y="33" type="line"/>
      <point x="474" y="970" type="line"/>
      <point x="404" y="1025" type="line"/>
      <point x="118" y="90" type="line"/>
    </contour>
    <contour>
      <point x="118" y="0" type="line"/>
      <point x="482" y="0" type="line"/>
      <point x="482" y="90" type="line"/>
      <point x="118" y="90" type="line"/>
    </contour>
    <contour>
      <point x="118" y="970" type="line"/>
      <point x="474" y="970" type="line"/>
      <point x="474" y="1060" type="line"/>
      <point x="118" y="1060" type="line"/>
    </contour>
  </outline>
</glyph>
<glyph name="braceleft" format="2">
  <advance width="600"/>
  <unicode hex="007B"/>
  <outline>
    <contour>
      <point x="425" y="-214" type="curve" smooth="yes"/>
      <point x="469" y="-214"/>
      <point x="495" y="-206"/>
      <point x="520" y="-194" type="curve"/>
      <point x="507" y="-112" type="line"/>
      <point x="484" y="-119"/>
      <point x="461" y="-124"/>
      <point x="443" y="-124" type="curve" smooth="yes"/>
      <point x="351" y="-124"/>
      <point x="297" y="-53"/>
      <point x="320" y="75" type="curve" smooth="yes"/>
      <point x="344" y="211"/>
      <point x="396" y="338"/>
      <point x="396" y="488" type="curve" smooth="yes"/>
      <point x="396" y="618"/>
      <point x="321" y="699"/>
      <point x="199" y="702" type="curve"/>
      <point x="199" y="710" type="line"/>
      <point x="321" y="713"/>
      <point x="396" y="796"/>
      <point x="396" y="942" type="curve" smooth="yes"/>
      <point x="396" y="1090"/>
      <point x="347" y="1223"/>
      <point x="320" y="1365" type="curve" smooth="yes"/>
      <point x="298" y="1475"/>
      <point x="351" y="1536"/>
      <point x="443" y="1536" type="curve" smooth="yes"/>
      <point x="461" y="1536"/>
      <point x="483" y="1531"/>
      <point x="506" y="1524" type="curve"/>
      <point x="520" y="1606" type="line"/>
      <point x="495" y="1618"/>
      <point x="469" y="1626"/>
      <point x="425" y="1626" type="curve" smooth="yes"/>
      <point x="287" y="1626"/>
      <point x="194" y="1533"/>
      <point x="224" y="1365" type="curve" smooth="yes"/>
      <point x="249" y="1227"/>
      <point x="296" y="1093"/>
      <point x="296" y="938" type="curve" smooth="yes"/>
      <point x="296" y="832"/>
      <point x="231" y="772"/>
      <point x="121" y="772" type="curve"/>
      <point x="121" y="640" type="line"/>
      <point x="234" y="640"/>
      <point x="296" y="607"/>
      <point x="296" y="492" type="curve" smooth="yes"/>
      <point x="296" y="347"/>
      <point x="247" y="212"/>
      <point x="224" y="75" type="curve" smooth="yes"/>
      <point x="192" y="-109"/>
      <point x="287" y="-214"/>
    </contour>
  </outline>
</glyph>
<glyph name="bar" format="2">
  <advance width="600"/>
  <unicode hex="007C"/>
  <outline>
    <contour>
      <point x="253" y="-310" type="line"/>
      <point x="347" y="-310" type="line"/>
      <point x="347" y="1730" type="line"/>
      <point x="253" y="1730" type="line"/>
    </contour>
  </outline>
</glyph>
<glyph name="braceright" format="2">
  <advance width="600"/>
  <unicode hex="007D"/>
  <outline>
    <contour>
      <point x="175" y="-214" type="curve" smooth="yes"/>
      <point x="313" y="-214"/>
      <point x="407" y="-109"/>
      <point x="376" y="75" type="curve" smooth="yes"/>
      <point x="353" y="212"/>
      <point x="304" y="347"/>
      <point x="304" y="492" type="curve" smooth="yes"/>
      <point x="304" y="607"/>
      <point x="366" y="640"/>
      <point x="479" y="640" type="curve"/>
      <point x="479" y="772" type="line"/>
      <point x="369" y="772"/>
      <point x="304" y="832"/>
      <point x="304" y="938" type="curve" smooth="yes"/>
      <point x="304" y="1093"/>
      <point x="351" y="1227"/>
      <point x="376" y="1365" type="curve" smooth="yes"/>
      <point x="406" y="1534"/>
      <point x="313" y="1626"/>
      <point x="175" y="1626" type="curve" smooth="yes"/>
      <point x="131" y="1626"/>
      <point x="105" y="1618"/>
      <point x="80" y="1606" type="curve"/>
      <point x="94" y="1524" type="line"/>
      <point x="117" y="1531"/>
      <point x="139" y="1536"/>
      <point x="157" y="1536" type="curve" smooth="yes"/>
      <point x="249" y="1536"/>
      <point x="301" y="1475"/>
      <point x="280" y="1365" type="curve" smooth="yes"/>
      <point x="252" y="1223"/>
      <point x="204" y="1090"/>
      <point x="204" y="942" type="curve" smooth="yes"/>
      <point x="204" y="796"/>
      <point x="279" y="713"/>
      <point x="401" y="710" type="curve"/>
      <point x="401" y="702" type="line"/>
      <point x="279" y="699"/>
      <point x="204" y="618"/>
      <point x="204" y="488" type="curve" smooth="yes"/>
      <point x="204" y="338"/>
      <point x="255" y="211"/>
      <point x="280" y="75" type="curve" smooth="yes"/>
      <point x="303" y="-53"/>
      <point x="249" y="-124"/>
      <point x="157" y="-124" type="curve" smooth="yes"/>
      <point x="139" y="-124"/>
      <point x="116" y="-119"/>
      <point x="93" y="-112" type="curve"/>
      <point x="80" y="-194" type="line"/>
      <point x="105" y="-206"/>
      <point x="131" y="-214"/>
    </contour>
  </outline>
</glyph>
<glyph name="asciitilde" format="2">
  <advance width="600"/>
  <unicode hex="007E"/>
  <outline>
    <contour>
      <point x="44" y="486" type="line"/>
      <point x="134" y="486" type="line"/>
      <point x="134" y="627" type="line" smooth="yes"/>
      <point x="134" y="740"/>
      <point x="149" y="786"/>
      <point x="186" y="786" type="curve" smooth="yes"/>
      <point x="219" y="786"/>
      <point x="233" y="755"/>
      <point x="269" y="680" type="curve" smooth="yes"/>
      <point x="315" y="583"/>
      <point x="349" y="540"/>
      <point x="416" y="540" type="curve" smooth="yes"/>
      <point x="516" y="540"/>
      <point x="556" y="614"/>
      <point x="556" y="800" type="curve" smooth="yes"/>
      <point x="556" y="930" type="line"/>
      <point x="466" y="930" type="line"/>
      <point x="466" y="790" type="line" smooth="yes"/>
      <point x="466" y="675"/>
      <point x="452" y="629"/>
      <point x="417" y="630" type="curve" smooth="yes"/>
      <point x="391" y="630"/>
      <point x="375" y="659"/>
      <point x="346" y="721" type="curve" smooth="yes"/>
      <point x="294" y="833"/>
      <point x="255" y="876"/>
      <point x="188" y="876" type="curve" smooth="yes"/>
      <point x="85" y="876"/>
      <point x="44" y="802"/>
      <point x="44" y="617" type="curve" smooth="yes"/>
    </contour>
  </outline>
</glyph>
<glyph name="cent" format="2">
  <advance width="600"/>
  <unicode hex="00A2"/>
  <anchor x="323" y="0" name="bottom"/>
  <anchor x="323" y="1060" name="top"/>
  <outline>
    <contour>
      <point x="296" y="-334" type="line"/>
      <point x="390" y="-334" type="line"/>
      <point x="390" y="1394" type="line"/>
      <point x="296" y="1394" type="line"/>
    </contour>
    <component base="c"/>
  </outline>
</glyph>
<glyph name="sterling" format="2">
  <advance width="600"/>
  <unicode hex="00A3"/>
  <outline>
    <contour>
      <point x="86" y="0" type="line"/>
      <point x="156" y="0" type="line"/>
      <point x="156" y="90" type="line"/>
      <point x="211" y="278"/>
      <point x="237" y="441"/>
      <point x="237" y="627" type="curve" smooth="yes"/>
      <point x="237" y="1146" type="line" smooth="yes"/>
      <point x="237" y="1280"/>
      <point x="278" y="1350"/>
      <point x="358" y="1350" type="curve" smooth="yes"/>
      <point x="403" y="1350"/>
      <point x="441" y="1311"/>
      <point x="468" y="1237" type="curve"/>
      <point x="555" y="1277" type="line"/>
      <point x="519" y="1384"/>
      <point x="452" y="1440"/>
      <point x="362" y="1440" type="curve" smooth="yes"/>
      <point x="212" y="1440"/>
      <point x="133" y="1340"/>
      <point x="133" y="1147" type="curve" smooth="yes"/>
      <point x="133" y="627" type="line" smooth="yes"/>
      <point x="133" y="441"/>
      <point x="118" y="278"/>
      <point x="86" y="90" type="curve"/>
    </contour>
    <contour>
      <point x="116" y="0" type="line"/>
      <point x="538" y="0" type="line"/>
      <point x="538" y="90" type="line"/>
      <point x="116" y="90" type="line"/>
    </contour>
    <contour>
      <point x="44" y="605" type="line"/>
      <point x="457" y="605" type="line"/>
      <point x="457" y="695" type="line"/>
      <point x="44" y="695" type="line"/>
    </contour>
  </outline>
</glyph>
<glyph name="yen" format="2">
  <advance width="600"/>
  <unicode hex="00A5"/>
  <anchor x="300" y="0" name="bottom"/>
  <anchor x="300" y="1420" name="top"/>
  <anchor x="-23" y="1420" name="topleft"/>
  <outline>
    <contour>
      <point x="101" y="479" type="line"/>
      <point x="499" y="479" type="line"/>
      <point x="499" y="569" type="line"/>
      <point x="101" y="569" type="line"/>
    </contour>
    <contour>
      <point x="101" y="220" type="line"/>
      <point x="499" y="220" type="line"/>
      <point x="499" y="310" type="line"/>
      <point x="101" y="310" type="line"/>
    </contour>
    <component base="Y"/>
  </outline>
</glyph>
<glyph name="copyright" format="2">
  <advance width="600"/>
  <unicode hex="00A9"/>
  <outline>
    <contour>
      <point x="300" y="15" type="curve" smooth="yes"/>
      <point x="497" y="15"/>
      <point x="610" y="263"/>
      <point x="610" y="695" type="curve" smooth="yes"/>
      <point x="610" y="1146"/>
      <point x="497" y="1405"/>
      <point x="300" y="1405" type="curve" smooth="yes"/>
      <point x="103" y="1405"/>
      <point x="-10" y="1146"/>
      <point x="-10" y="695" type="curve" smooth="yes"/>
      <point x="-10" y="263"/>
      <point x="103" y="15"/>
    </contour>
    <contour>
      <point x="300" y="105" type="curve" smooth="yes"/>
      <point x="144" y="105"/>
      <point x="55" y="321"/>
      <point x="55" y="695" type="curve" smooth="yes"/>
      <point x="55" y="1086"/>
      <point x="144" y="1313"/>
      <point x="300" y="1313" type="curve" smooth="yes"/>
      <point x="456" y="1313"/>
      <point x="545" y="1086"/>
      <point x="545" y="695" type="curve" smooth="yes"/>
      <point x="545" y="321"/>
      <point x="456" y="105"/>
    </contour>
    <contour>
      <point x="329" y="414" type="curve" smooth="yes"/>
      <point x="366" y="414"/>
      <point x="411" y="419"/>
      <point x="451" y="444" type="curve"/>
      <point x="438" y="532" type="line"/>
      <point x="409" y="517"/>
      <point x="377" y="506"/>
      <point x="342" y="506" type="curve" smooth="yes"/>
      <point x="259" y="506"/>
      <point x="213" y="582"/>
      <point x="213" y="722" type="curve" smooth="yes"/>
      <point x="213" y="845"/>
      <point x="252" y="914"/>
      <point x="320" y="914" type="curve" smooth="yes"/>
      <point x="355" y="914"/>
      <point x="388" y="884"/>
      <point x="408" y="828" type="curve"/>
      <point x="456" y="890" type="line"/>
      <point x="437" y="960"/>
      <point x="391" y="1006"/>
      <point x="324" y="1006" type="curve" smooth="yes"/>
      <point x="208" y="1006"/>
      <point x="143" y="897"/>
      <point x="143" y="712" type="curve" smooth="yes"/>
      <point x="143" y="520"/>
      <point x="211" y="414"/>
    </contour>
  </outline>
</glyph>
<glyph name="registered" format="2">
  <advance width="600"/>
  <unicode hex="00AE"/>
  <outline>
    <contour>
      <point x="300" y="15" type="curve" smooth="yes"/>
      <point x="521" y="15"/>
      <point x="598" y="190"/>
      <point x="598" y="695" type="curve" smooth="yes"/>
      <point x="598" y="1222"/>
      <point x="521" y="1405"/>
      <point x="300" y="1405" type="curve" smooth="yes"/>
      <point x="78" y="1405"/>
      <point x="1" y="1222"/>
      <point x="1" y="695" type="curve" smooth="yes"/>
      <point x="1" y="190"/>
      <point x="78" y="15"/>
    </contour>
    <contour>
      <point x="142" y="396" type="line"/>
      <point x="236" y="396" type="line"/>
      <point x="236" y="1010" type="line"/>
      <point x="142" y="1010" type="line"/>
    </contour>
    <contour>
      <point x="381" y="396" type="line"/>
      <point x="479" y="396" type="line"/>
      <point x="356" y="655" type="line"/>
      <point x="272" y="628" type="line"/>
    </contour>
    <contour>
      <point x="300" y="105" type="curve" smooth="yes"/>
      <point x="146" y="105"/>
      <point x="93" y="257"/>
      <point x="93" y="695" type="curve" smooth="yes"/>
      <point x="93" y="1154"/>
      <point x="146" y="1313"/>
      <point x="300" y="1313" type="curve" smooth="yes"/>
      <point x="453" y="1313"/>
      <point x="506" y="1154"/>
      <point x="506" y="695" type="curve" smooth="yes"/>
      <point x="506" y="257"/>
      <point x="453" y="105"/>
    </contour>
    <contour>
      <point x="222" y="620" type="line"/>
      <point x="247" y="620" type="line" smooth="yes"/>
      <point x="386" y="620"/>
      <point x="465" y="695"/>
      <point x="465" y="825" type="curve" smooth="yes"/>
      <point x="465" y="942"/>
      <point x="386" y="1010"/>
      <point x="247" y="1010" type="curve" smooth="yes"/>
      <point x="202" y="1010" type="line"/>
      <point x="202" y="920" type="line"/>
      <point x="247" y="920" type="line" smooth="yes"/>
      <point x="324" y="920"/>
      <point x="369" y="882"/>
      <point x="369" y="815" type="curve" smooth="yes"/>
      <point x="369" y="748"/>
      <point x="324" y="710"/>
      <point x="247" y="710" type="curve" smooth="yes"/>
      <point x="222" y="710" type="line"/>
    </contour>
  </outline>
</glyph>
<glyph name="degree" format="2">
  <advance width="600"/>
  <unicode hex="00B0"/>
  <outline>
    <contour>
      <point x="300" y="690" type="curve" smooth="yes"/>
      <point x="445" y="690"/>
      <point x="520" y="819"/>
      <point x="520" y="1065" type="curve" smooth="yes"/>
      <point x="520" y="1311"/>
      <point x="445" y="1440"/>
      <point x="300" y="1440" type="curve" smooth="yes"/>
      <point x="155" y="1440"/>
      <point x="80" y="1311"/>
      <point x="80" y="1065" type="curve" smooth="yes"/>
      <point x="80" y="819"/>
      <point x="155" y="690"/>
    </contour>
    <contour>
      <point x="300" y="782" type="curve" smooth="yes"/>
      <point x="219" y="782"/>
      <point x="176" y="879"/>
      <point x="176" y="1065" type="curve" smooth="yes"/>
      <point x="176" y="1251"/>
      <point x="219" y="1348"/>
      <point x="300" y="1348" type="curve" smooth="yes"/>
      <point x="381" y="1348"/>
      <point x="424" y="1251"/>
      <point x="424" y="1065" type="curve" smooth="yes"/>
      <point x="424" y="879"/>
      <point x="381" y="782"/>
    </contour>
  </outline>
</glyph>
<glyph name="multiply" format="2">
  <advance width="600"/>
  <unicode hex="00D7"/>
  <outline>
    <contour>
      <point x="128" y="253" type="line"/>
      <point x="65" y="284" type="line"/>
      <point x="283" y="734" type="line"/>
      <point x="472" y="1123" type="line"/>
      <point x="535" y="1090" type="line"/>
      <point x="325" y="658" type="line"/>
    </contour>
    <contour>
      <point x="472" y="253" type="line"/>
      <point x="275" y="658" type="line"/>
      <point x="65" y="1090" type="line"/>
      <point x="128" y="1123" type="line"/>
      <point x="317" y="733" type="line"/>
      <point x="535" y="284" type="line"/>
    </contour>
  </outline>
</glyph>
<glyph name="divide" format="2">
  <advance width="600"/>
  <unicode hex="00F7"/>
  <outline>
    <contour>
      <point x="44" y="664" type="line"/>
      <point x="556" y="664" type="line"/>
      <point x="556" y="754" type="line"/>
      <point x="44" y="754" type="line"/>
    </contour>
    <component base="period" yOffset="217"/>
    <component base="period" yOffset="1039"/>
  </outline>
</glyph>
<glyph name="quoteleft" format="2">
  <advance width="600"/>
  <unicode hex="2018"/>
  <outline>
    <contour>
      <point x="402" y="710" type="curve" smooth="yes"/>
      <point x="447" y="710" type="line"/>
      <point x="447" y="802" type="line"/>
      <point x="402" y="802" type="line" smooth="yes"/>
      <point x="269" y="802"/>
      <point x="209" y="852"/>
      <point x="209" y="962" type="curve" smooth="yes"/>
      <point x="209" y="1053"/>
      <point x="260" y="1193"/>
      <point x="396" y="1348" type="curve" smooth="yes"/>
      <point x="424" y="1380" type="line"/>
      <point x="354" y="1440" type="line"/>
      <point x="330" y="1414" type="line" smooth="yes"/>
      <point x="166" y="1236"/>
      <point x="113" y="1086"/>
      <point x="113" y="962" type="curve" smooth="yes"/>
      <point x="113" y="789"/>
      <point x="204" y="710"/>
    </contour>
  </outline>
</glyph>
<glyph name="quoteright" format="2">
  <advance width="600"/>
  <unicode hex="2019"/>
  <outline>
    <contour>
      <point x="226" y="690" type="line"/>
      <point x="250" y="716" type="line" smooth="yes"/>
      <point x="414" y="894"/>
      <point x="467" y="1044"/>
      <point x="467" y="1168" type="curve" smooth="yes"/>
      <point x="467" y="1341"/>
      <point x="376" y="1420"/>
      <point x="178" y="1420" type="curve" smooth="yes"/>
      <point x="133" y="1420" type="line"/>
      <point x="133" y="1328" type="line"/>
      <point x="178" y="1328" type="line" smooth="yes"/>
      <point x="311" y="1328"/>
      <point x="371" y="1278"/>
      <point x="371" y="1168" type="curve" smooth="yes"/>
      <point x="371" y="1077"/>
      <point x="320" y="937"/>
      <point x="184" y="782" type="curve" smooth="yes"/>
      <point x="156" y="750" type="line"/>
    </contour>
  </outline>
</glyph>
<glyph name="quotedblleft" format="2">
  <advance width="600"/>
  <unicode hex="201C"/>
  <outline>
    <contour>
      <point x="509" y="882" type="curve" smooth="yes"/>
      <point x="590" y="882" type="line"/>
      <point x="590" y="974" type="line"/>
      <point x="529" y="974" type="line" smooth="yes"/>
      <point x="425" y="974"/>
      <point x="362" y="1022"/>
      <point x="362" y="1103" type="curve" smooth="yes"/>
      <point x="362" y="1190"/>
      <point x="390" y="1279"/>
      <point x="439" y="1420" type="curve"/>
      <point x="343" y="1440" type="line"/>
      <point x="286" y="1291"/>
      <point x="265" y="1184"/>
      <point x="265" y="1104" type="curve" smooth="yes"/>
      <point x="265" y="964"/>
      <point x="357" y="882"/>
    </contour>
    <contour>
      <point x="309" y="440" type="curve" smooth="yes"/>
      <point x="404" y="440" type="line"/>
      <point x="404" y="532" type="line"/>
      <point x="329" y="532" type="line" smooth="yes"/>
      <point x="225" y="532"/>
      <point x="162" y="580"/>
      <point x="162" y="661" type="curve" smooth="yes"/>
      <point x="162" y="748"/>
      <point x="197" y="852"/>
      <point x="239" y="978" type="curve"/>
      <point x="143" y="998" type="line"/>
      <point x="84" y="851"/>
      <point x="65" y="743"/>
      <point x="65" y="662" type="curve" smooth="yes"/>
      <point x="65" y="522"/>
      <point x="157" y="440"/>
    </contour>
  </outline>
</glyph>
<glyph name="quotedblright" format="2">
  <advance width="600"/>
  <unicode hex="201D"/>
  <outline>
    <contour>
      <point x="457" y="882" type="line"/>
      <point x="516" y="1029"/>
      <point x="535" y="1137"/>
      <point x="535" y="1218" type="curve" smooth="yes"/>
      <point x="535" y="1358"/>
      <point x="443" y="1440"/>
      <point x="291" y="1440" type="curve" smooth="yes"/>
      <point x="196" y="1440" type="line"/>
      <point x="196" y="1348" type="line"/>
      <point x="271" y="1348" type="line" smooth="yes"/>
      <point x="375" y="1348"/>
      <point x="438" y="1300"/>
      <point x="438" y="1219" type="curve" smooth="yes"/>
      <point x="438" y="1132"/>
      <point x="403" y="1028"/>
      <point x="361" y="902" type="curve"/>
    </contour>
    <contour>
      <point x="257" y="440" type="line"/>
      <point x="314" y="589"/>
      <point x="335" y="696"/>
      <point x="335" y="776" type="curve" smooth="yes"/>
      <point x="335" y="916"/>
      <point x="243" y="998"/>
      <point x="91" y="998" type="curve" smooth="yes"/>
      <point x="10" y="998" type="line"/>
      <point x="10" y="906" type="line"/>
      <point x="71" y="906" type="line" smooth="yes"/>
      <point x="175" y="906"/>
      <point x="238" y="858"/>
      <point x="238" y="777" type="curve" smooth="yes"/>
      <point x="238" y="690"/>
      <point x="210" y="601"/>
      <point x="161" y="460" type="curve"/>
    </contour>
  </outline>
</glyph>
<glyph name="bullet" format="2">
  <advance width="600"/>
  <unicode hex="2022"/>
  <outline>
    <contour>
      <point x="300" y="554" type="curve" smooth="yes"/>
      <point x="386" y="554"/>
      <point x="456" y="624"/>
      <point x="456" y="710" type="curve" smooth="yes"/>
      <point x="456" y="796"/>
      <point x="386" y="866"/>
      <point x="300" y="866" type="curve" smooth="yes"/>
      <point x="214" y="866"/>
      <point x="144" y="796"/>
      <point x="144" y="710" type="curve" smooth="yes"/>
      <point x="144" y="624"/>
      <point x="214" y="554"/>
    </contour>
  </outline>
</glyph>
<glyph name="ellipsis" format="2">
  <advance width="600"/>
  <unicode hex="2026"/>
  <outline>
    <contour>
      <point x="130" y="-20" type="curve" smooth="yes"/>
      <point x="185" y="-20"/>
      <point x="230" y="24"/>
      <point x="230" y="79" type="curve" smooth="yes"/>
      <point x="230" y="134"/>
      <point x="185" y="179"/>
      <point x="130" y="179" type="curve" smooth="yes"/>
      <point x="75" y="179"/>
      <point x="30" y="134"/>
      <point x="30" y="79" type="curve" smooth="yes"/>
      <point x="30" y="24"/>
      <point x="75" y="-20"/>
    </contour>
    <contour>
      <point x="470" y="605" type="curve" smooth="yes"/>
      <point x="525" y="605"/>
      <point x="570" y="649"/>
      <point x="570" y="704" type="curve" smooth="yes"/>
      <point x="570" y="759"/>
      <point x="525" y="804"/>
      <point x="470" y="804" type="curve" smooth="yes"/>
      <point x="415" y="804"/>
      <point x="370" y="759"/>
      <point x="370" y="704" type="curve" smooth="yes"/>
      <point x="370" y="649"/>
      <point x="415" y="605"/>
    </contour>
    <contour>
      <point x="300" y="293" type="curve" smooth="yes"/>
      <point x="354" y="293"/>
      <point x="398" y="337"/>
      <point x="398" y="392" type="curve" smooth="yes"/>
      <point x="398" y="447"/>
      <point x="354" y="492"/>
      <point x="300" y="492" type="curve" smooth="yes"/>
      <point x="246" y="492"/>
      <point x="202" y="447"/>
      <point x="202" y="392" type="curve" smooth="yes"/>
      <point x="202" y="337"/>
      <point x="246" y="293"/>
    </contour>
  </outline>
</glyph>
<glyph name="euro" format="2">
  <advance width="600"/>
  <unicode hex="20AC"/>
  <outline>
    <contour>
      <point x="404" y="-20" type="curve" smooth="yes"/>
      <point x="456" y="-20"/>
      <point x="507" y="-11"/>
      <point x="557" y="7" type="curve"/>
      <point x="540" y="96" type="line"/>
      <point x="497" y="78"/>
      <point x="455" y="70"/>
      <point x="415" y="70" type="curve" smooth="yes"/>
      <point x="262" y="70"/>
      <point x="183" y="294"/>
      <point x="183" y="722" type="curve" smooth="yes"/>
      <point x="183" y="1135"/>
      <point x="250" y="1350"/>
      <point x="382" y="1350" type="curve" smooth="yes"/>
      <point x="427" y="1350"/>
      <point x="456" y="1325"/>
      <point x="473" y="1269" type="curve"/>
      <point x="556" y="1305" type="line"/>
      <point x="520" y="1398"/>
      <point x="465" y="1440"/>
      <point x="381" y="1440" type="curve" smooth="yes"/>
      <point x="187" y="1440"/>
      <point x="87" y="1190"/>
      <point x="87" y="712" type="curve" smooth="yes"/>
      <point x="87" y="231"/>
      <point x="196" y="-20"/>
    </contour>
    <contour>
      <point x="20" y="515" type="line"/>
      <point x="459" y="515" type="line"/>
      <point x="459" y="605" type="line"/>
      <point x="20" y="605" type="line"/>
    </contour>
    <contour>
      <point x="20" y="805" type="line"/>
      <point x="459" y="805" type="line"/>
      <point x="459" y="895" type="line"/>
      <point x="20" y="895" type="line"/>
    </contour>
  </outline>
</glyph>
<glyph name="trademark" format="2">
  <advance width="600"/>
  <unicode hex="2122"/>
  <outline>
    <contour>
      <point x="77" y="774" type="line"/>
      <point x="148" y="774" type="line"/>
      <point x="148" y="1420" type="line"/>
      <point x="77" y="1420" type="line"/>
    </contour>
    <contour>
      <point x="4" y="1330" type="line"/>
      <point x="221" y="1330" type="line"/>
      <point x="221" y="1420" type="line"/>
      <point x="4" y="1420" type="line"/>
    </contour>
    <contour>
      <point x="420" y="982" type="line"/>
      <point x="465" y="982" type="line"/>
      <point x="516" y="1328" type="line"/>
      <point x="557" y="1328" type="line"/>
      <point x="557" y="1420" type="line"/>
      <point x="478" y="1420" type="line"/>
      <point x="429" y="1083" type="line"/>
      <point x="426" y="1083" type="line"/>
    </contour>
    <contour>
      <point x="263" y="774" type="line"/>
      <point x="333" y="774" type="line"/>
      <point x="333" y="1420" type="line"/>
      <point x="263" y="1420" type="line"/>
    </contour>
    <contour>
      <point x="390" y="982" type="line"/>
      <point x="433" y="982" type="line"/>
      <point x="428" y="1083" type="line"/>
      <point x="426" y="1083" type="line"/>
      <point x="377" y="1420" type="line"/>
      <point x="296" y="1420" type="line"/>
      <point x="296" y="1328" type="line"/>
      <point x="337" y="1328" type="line"/>
    </contour>
    <contour>
      <point x="520" y="774" type="line"/>
      <point x="590" y="774" type="line"/>
      <point x="590" y="1420" type="line"/>
      <point x="520" y="1420" type="line"/>
    </contour>
  </outline>
</glyph>
<glyph name=".notdef" format="2">
  <advance width="600"/>
  <outline>
    <contour>
      <point x="417" y="0" type="line"/>
      <point x="511" y="0" type="line"/>
      <point x="511" y="1420" type="line"/>
      <point x="417" y="1420" type="line"/>
    </contour>
    <contour>
      <point x="89" y="0" type="line"/>
      <point x="511" y="0" type="line"/>
      <point x="511" y="88" type="line"/>
      <point x="89" y="88" type="line"/>
    </contour>
    <contour>
      <point x="89" y="0" type="line"/>
      <point x="183" y="0" type="line"/>
      <point x="183" y="1420" type="line"/>
      <point x="89" y="1420" type="line"/>
    </contour>
    <contour>
      <point x="89" y="1332" type="line"/>
      <point x="511" y="1332" type="line"/>
      <point x="511" y="1420" type="line"/>
      <point x="89" y="1420" type="line"/>
    </contour>
  </outline>
</glyph>
<glyph name="cent.BRACKET.varAlt01" format="2">
  <advance width="600"/>
  <outline>
    <contour>
      <point x="296" y="1031" type="line"/>
      <point x="390" y="1031" type="line"/>
      <point x="390" y="1394" type="line"/>
      <point x="296" y="1394" type="line"/>
    </contour>
    <contour>
      <point x="296" y="-334" type="line"/>
      <point x="390" y="-334" type="line"/>
      <point x="390" y="55" type="line"/>
      <point x="296" y="55" type="line"/>
    </contour>
    <component base="c"/>
  </outline>
</glyph>
